<?xml version="1.0" encoding="UTF-8"?>
<svg version="1.1" xmlns="http://www.w3.org/2000/svg" width="100" height="100">
<path d="M0 0 C1.98 0 3.96 0 6 0 C8.46937673 6.2322365 10.3186083 12.51292846 12 19 C12.27714844 17.79601562 12.55429687 16.59203125 12.83984375 15.3515625 C13.20559679 13.77601093 13.57148945 12.20049177 13.9375 10.625 C14.11990234 9.8309375 14.30230469 9.036875 14.49023438 8.21875 C14.66748047 7.45820313 14.84472656 6.69765625 15.02734375 5.9140625 C15.18968506 5.2123291 15.35202637 4.5105957 15.51928711 3.78759766 C16 2 16 2 17 0 C19.31 0 21.62 0 24 0 C24.67250524 2.58193977 25.33817901 5.16532071 26 7.75 C26.19078125 8.47960938 26.3815625 9.20921875 26.578125 9.9609375 C27.46515964 13.44571646 28 16.38123722 28 20 C28.66 20 29.32 20 30 20 C30.103125 18.906875 30.20625 17.81375 30.3125 16.6875 C32.00575153 2.99424847 32.00575153 2.99424847 35 0 C36.99958364 -0.04080783 39.00045254 -0.04254356 41 0 C40.35351463 6.41097991 38.48920152 12.26359774 36.5 18.375 C36.17902344 19.38433594 35.85804687 20.39367187 35.52734375 21.43359375 C33.13778832 28.86221168 33.13778832 28.86221168 32 30 C29.66702567 30.04092937 27.33294775 30.04241723 25 30 C24.58427734 28.28490234 24.58427734 28.28490234 24.16015625 26.53515625 C23.79445622 25.04422535 23.42856071 23.55334239 23.0625 22.0625 C22.88009766 21.30775391 22.69769531 20.55300781 22.50976562 19.77539062 C21.86160821 16.08720179 21.86160821 16.08720179 20 13 C19.72285156 14.14339844 19.44570313 15.28679688 19.16015625 16.46484375 C18.79445622 17.95577465 18.42856071 19.44665761 18.0625 20.9375 C17.88009766 21.69224609 17.69769531 22.44699219 17.50976562 23.22460938 C16.11328125 28.88671875 16.11328125 28.88671875 15 30 C12.66702567 30.04092937 10.33294775 30.04241723 8 30 C6.65747832 25.75284696 5.32758026 21.50184488 4 17.25 C3.6184375 16.0434375 3.236875 14.836875 2.84375 13.59375 C2.4828125 12.43359375 2.121875 11.2734375 1.75 10.078125 C1.24726562 8.47565918 1.24726562 8.47565918 0.734375 6.84082031 C0 4 0 4 0 0 Z " fill="#FCC418" transform="translate(31,23)"/>
<path d="M0 0 C3.7692063 1.12057485 7.17722549 2.5737659 10.6875 4.3125 C15.8744753 6.71031986 21.11740082 8.29363533 26.625 9.75 C27.41221436 9.96052002 28.19942871 10.17104004 29.01049805 10.38793945 C47.25176622 15.03528726 67.06989222 13.70657398 84.5546875 6.671875 C87.40281796 5.88932158 89.18426534 6.21280536 92 7 C90.75783718 10.72648846 89.1653062 11.23892037 85.78100586 12.95678711 C85.06952393 13.30104736 84.35804199 13.64530762 83.625 14 C82.53940796 14.53282593 82.53940796 14.53282593 81.43188477 15.07641602 C63.06549004 23.85733291 42.51042582 24.30228614 23.33203125 17.74609375 C14.63286318 14.26452921 6.6654095 9.6654095 0 3 C0 2.01 0 1.02 0 0 Z " fill="#FCC418" transform="translate(0,61)"/>
<path d="M0 0 C2.96912882 1.38980498 4.69657028 2.69657028 7 5 C7.85601009 8.28281078 8.16370211 11.48197527 8.31640625 14.86328125 C8.35830078 15.74951172 8.40019531 16.63574219 8.44335938 17.54882812 C8.48267578 18.46083984 8.52199219 19.37285156 8.5625 20.3125 C8.60568359 21.24384766 8.64886719 22.17519531 8.69335938 23.13476562 C8.79897225 25.42304454 8.90107752 27.71142372 9 30 C7.125 31.0625 7.125 31.0625 5 32 C4.34 31.67 3.68 31.34 3 31 C3 30.34 3 29.68 3 29 C2.195625 29.495 1.39125 29.99 0.5625 30.5 C-3.81134487 32.34161889 -7.32200253 32.88572379 -12 32 C-15.0625 30.0625 -15.0625 30.0625 -17 27 C-17.62355754 23.87107737 -17.64287152 21.1266933 -17 18 C-14.80168636 14.96784325 -13.55036806 14.18345602 -10 13 C-8.27204648 12.93197033 -6.54164635 12.91504355 -4.8125 12.9375 C-3.91144531 12.94652344 -3.01039062 12.95554687 -2.08203125 12.96484375 C-1.39496094 12.97644531 -0.70789063 12.98804688 0 13 C-0.33 11.02 -0.66 9.04 -1 7 C-8.05651252 6.85024761 -8.05651252 6.85024761 -15 8 C-15 6.35 -15 4.7 -15 3 C-9.97840593 -0.09021174 -5.75818407 -0.80742064 0 0 Z M-10 20.5 C-10.33 21.325 -10.66 22.15 -11 23 C-10.01 24.32 -9.02 25.64 -8 27 C-3.81110517 26.53748023 -3.81110517 26.53748023 -0.0625 24.75 C1.27343587 22.95347851 1.27343587 22.95347851 0.6875 20.3125 C0.3471875 19.1678125 0.3471875 19.1678125 0 18 C-5.82018177 17.16936724 -5.82018177 17.16936724 -10 20.5 Z " fill="#FCC418" transform="translate(21,22)"/>
<path d="M0 0 C3.0625 1.25 3.0625 1.25 5 3 C5 4.32 5 5.64 5 7 C0.71 7 -3.58 7 -8 7 C-8 8.32 -8 9.64 -8 11 C-7.24074219 11.25394531 -6.48148438 11.50789063 -5.69921875 11.76953125 C-4.70535156 12.11371094 -3.71148437 12.45789062 -2.6875 12.8125 C-1.20830078 13.31716797 -1.20830078 13.31716797 0.30078125 13.83203125 C2.93530014 14.97200397 4.33442335 15.68915028 6 18 C6.74724147 21.09323214 6.6372073 23.89021054 6 27 C3.8351046 29.94666318 3.23557457 30.76198903 0 32 C-6.53308759 32.90810799 -11.47402603 32.81241507 -17 29 C-16.67 27.68 -16.34 26.36 -16 25 C-15.16855469 25.09539063 -14.33710937 25.19078125 -13.48046875 25.2890625 C-12.39378906 25.39992188 -11.30710937 25.51078125 -10.1875 25.625 C-8.56908203 25.79902344 -8.56908203 25.79902344 -6.91796875 25.9765625 C-3.80375668 26.27460156 -3.80375668 26.27460156 -1 24 C-1.33 23.01 -1.66 22.02 -2 21 C-4.71791549 19.6354883 -4.71791549 19.6354883 -7.9375 18.5 C-13.78235605 16.32646593 -13.78235605 16.32646593 -16 13 C-16.4375 9.625 -16.4375 9.625 -16 6 C-11.11522912 0.0868563 -7.36192803 -0.71080684 0 0 Z " fill="#FCC518" transform="translate(90,22)"/>
<path d="M0 0 C0.5323378 6.38805359 0.0505924 11.78673756 -4 17 C-6.140625 18.22265625 -6.140625 18.22265625 -8 19 C-7.40380045 14.13103697 -6.43023178 9.67209049 -5 5 C-9.62 5 -14.24 5 -19 5 C-19 4.01 -19 3.02 -19 2 C-12.31311081 -0.85888741 -7.14765932 -1.23852969 0 0 Z " fill="#FCC418" transform="translate(100,60)"/>
</svg>
