<?xml version="1.0" encoding="UTF-8"?>
<svg version="1.1" xmlns="http://www.w3.org/2000/svg" width="100" height="100">
<path d="M0 0 C4.84630736 2.77961761 8.2379166 6.56355262 11.5625 11 C14.8498027 9.90423243 15.18760784 9.41029968 17.125 6.75 C21.71559166 1.30638886 26.90619663 -1.48425996 33.96875 -2.48046875 C41.81141314 -2.7958802 48.23142386 -1.84141116 54.5625 3 C60.17529168 8.79988473 62.84564107 14.57911606 63 22.6875 C62.8623413 30.42067973 61.2871796 36.39547136 55.625 41.875 C47.79607881 48.04324094 40.42017727 49.08314101 30.5625 48 C27.16726822 46.7843036 24.44625994 45.14591091 21.5625 43 C20.61375 42.319375 19.665 41.63875 18.6875 40.9375 C16.66424072 39.0927636 15.0969706 37.2613251 13.5625 35 C9.72183963 36.56471348 7.43216685 39.06034127 4.5625 42 C-1.95372344 47.70169551 -7.32127813 48.52301128 -15.85546875 48.37109375 C-22.12408942 47.72167285 -26.91244865 45.60921973 -31.3125 41.0625 C-37.50491076 33.20290173 -38.46154309 25.88471072 -37.4375 16 C-35.30557613 8.57297219 -31.1320133 3.75298473 -24.4375 0 C-16.9614275 -3.61907027 -7.51993864 -3.42549352 0 0 Z M-25.25 13 C-28.54792257 17.52286524 -28.999651 21.52423286 -28.4375 27 C-26.57893173 32.26594344 -23.83435804 34.79395768 -19.4375 38 C-14.72313487 39.57145504 -10.72258995 40.02691864 -6.16015625 37.9765625 C-0.27143298 34.33260041 3.65429136 29.65496427 7.5625 24 C4.66630655 16.94839857 0.69968168 12.53224651 -5.4375 8 C-13.16692426 5.42352525 -19.85954495 6.80867735 -25.25 13 Z M21.04296875 16.90234375 C19.36585529 19.27862325 18.26449866 21.16568042 17.5625 24 C20.55708886 30.5972743 27.05106833 36.03617593 33.5625 39 C37.605721 39.88537686 40.84412361 39.25354461 44.75 37.875 C48.98301121 35.05299253 51.92159664 31.92271008 53.5625 27 C53.93076224 21.38400084 53.77806007 17.82334011 50.5625 13 C46.6576482 9.05247222 43.42504942 7.15521245 37.8125 6.6875 C30.13079171 6.84197677 25.79663831 11.43072867 21.04296875 16.90234375 Z " fill="#00A2A8" transform="translate(37.4375,27)"/>
<path d="M0 0 C1.67542976 0.28604898 3.34385343 0.61781233 5 1 C5 2.65 5 4.3 5 6 C6.65 6 8.3 6 10 6 C10.38218767 7.65614657 10.71395102 9.32457024 11 11 C10 12 10 12 7.4375 12.0625 C6.633125 12.041875 5.82875 12.02125 5 12 C5 13.65 5 15.3 5 17 C3.34385343 17.38218767 1.67542976 17.71395102 0 18 C-1 17 -1 17 -1.0625 14.4375 C-1.041875 13.633125 -1.02125 12.82875 -1 12 C-2.65 12 -4.3 12 -6 12 C-6.38218767 10.34385343 -6.71395102 8.67542976 -7 7 C-6 6 -6 6 -3.4375 5.9375 C-2.2309375 5.9684375 -2.2309375 5.9684375 -1 6 C-1.020625 5.195625 -1.04125 4.39125 -1.0625 3.5625 C-1 1 -1 1 0 0 Z " fill="#009FA4" transform="translate(73,41)"/>
<path d="M0 0 C1.48831242 0.00667405 2.97660807 0.01863442 4.46484375 0.03515625 C5.22345703 0.03966797 5.98207031 0.04417969 6.76367188 0.04882812 C8.64326246 0.06064945 10.52281274 0.07858547 12.40234375 0.09765625 C12.78453142 1.75380282 13.11629477 3.42222649 13.40234375 5.09765625 C12.40234375 6.09765625 12.40234375 6.09765625 8.8046875 6.1953125 C7.31637508 6.18863845 5.82807943 6.17667808 4.33984375 6.16015625 C3.58123047 6.15564453 2.82261719 6.15113281 2.04101562 6.14648438 C0.16142504 6.13466305 -1.71812524 6.11672703 -3.59765625 6.09765625 C-3.97984392 4.44150968 -4.31160727 2.77308601 -4.59765625 1.09765625 C-3.59765625 0.09765625 -3.59765625 0.09765625 0 0 Z " fill="#00A5AA" transform="translate(20.59765625,46.90234375)"/>
</svg>
