<?xml version="1.0" encoding="UTF-8"?>
<svg version="1.1" xmlns="http://www.w3.org/2000/svg" width="288" height="288">
<path d="M0 0 C1.4042996 -0.0027001 2.80859737 -0.00658682 4.21289062 -0.01159668 C7.14471374 -0.01746753 10.07604674 -0.00900796 13.0078125 0.00976562 C16.74685691 0.03255475 20.48475252 0.01941849 24.22375488 -0.00452423 C27.12020363 -0.0190484 30.01638454 -0.01434627 32.9128418 -0.00401306 C34.29061014 -0.00136397 35.66840362 -0.00455086 37.04614258 -0.01393127 C51.52730904 -0.09091398 51.52730904 -0.09091398 57.5 4.53125 C66.07355492 13.29517022 68.55982685 28.87622437 71.99978638 40.35964966 C72.90488215 43.3810013 73.81583956 46.40053391 74.72827148 49.41967773 C75.69188917 52.60831817 76.65518407 55.79705152 77.616745 58.98631287 C80.60345494 68.89099669 83.63146685 78.78277057 86.66680908 88.67263794 C87.56785888 91.6112269 88.46668137 94.55048772 89.36474609 97.48999023 C92.54395642 107.89413451 95.73331924 118.2949833 98.94682598 128.68858433 C100.9092591 135.03716727 102.86426573 141.38801219 104.81493855 147.74021816 C106.02398458 151.67601082 107.23677663 155.6105658 108.45828247 159.54251099 C109.61098092 163.25316633 110.75413975 166.96662805 111.89024544 170.68239594 C112.31428885 172.06309746 112.74187206 173.44271727 113.17315483 174.82117462 C113.76609141 176.71812758 114.34531138 178.61935176 114.92382812 180.52075195 C115.41888855 182.12440361 115.41888855 182.12440361 115.9239502 183.76045227 C116.49486373 186.50654457 116.45704978 187.93383972 115.5 190.53125 C113.96859375 189.80421875 113.96859375 189.80421875 112.40625 189.0625 C95.9133267 181.3951438 78.75347283 175.14879321 60.85546875 171.72167969 C55.6864232 170.7176732 55.6864232 170.7176732 53.5 168.53125 C52.77741233 166.51768695 52.13636162 164.47460567 51.53564453 162.42138672 C51.34958775 161.79213193 51.16353096 161.16287714 50.97183609 160.51455402 C50.35270934 158.41509418 49.74281619 156.31306452 49.1328125 154.2109375 C48.69766268 152.7291 48.26191103 151.24743911 47.82559204 149.76594543 C46.89906192 146.61572652 45.97646569 143.46439328 45.05700684 140.31210327 C43.62944923 135.41815261 42.19313796 130.52680232 40.75488281 125.63598633 C39.32843803 120.78416769 37.90228882 115.93226554 36.47912598 111.07948303 C33.02023791 99.2859704 29.53489249 87.50067104 26.00286865 75.7288208 C25.26325918 73.26295624 24.52635218 70.79629464 23.78955078 68.32958984 C23.35470865 66.87981787 22.91966565 65.43010612 22.484375 63.98046875 C22.12053711 62.76705811 21.75669922 61.55364746 21.38183594 60.3034668 C20.60386075 57.60976885 20.60386075 57.60976885 19.5 55.53125 C17.85 55.86125 16.2 56.19125 14.5 56.53125 C14.17506561 57.63942078 13.85013123 58.74759155 13.51535034 59.88934326 C10.42747623 70.4200649 7.33894037 80.95059226 4.24978447 91.48093796 C2.66229307 96.89247055 1.07502124 102.30406734 -0.51171875 107.71582031 C-2.04787688 112.95502645 -3.58465098 118.19405157 -5.12182236 123.43296051 C-5.70320694 125.41478513 -6.28438307 127.39667093 -6.86532974 129.37862396 C-8.47344626 134.86458302 -10.08731259 140.34879639 -11.70639801 145.83152771 C-12.53382741 148.64632607 -13.35110149 151.4639627 -14.16790771 154.28186035 C-14.7052972 156.11668478 -15.24290678 157.95144477 -15.78076172 159.78613281 C-16.14739017 161.06441011 -16.14739017 161.06441011 -16.52142525 162.3685112 C-16.86743184 163.54097334 -16.86743184 163.54097334 -17.22042847 164.73712158 C-17.4200009 165.42401691 -17.61957333 166.11091225 -17.82519341 166.81862259 C-18.5 168.53125 -18.5 168.53125 -20.5 170.53125 C-22.70458984 171.19799805 -22.70458984 171.19799805 -25.4609375 171.79296875 C-26.48002197 172.02105225 -27.49910645 172.24913574 -28.54907227 172.48413086 C-30.19540649 172.84776733 -30.19540649 172.84776733 -31.875 173.21875 C-49.19759311 177.21856118 -65.36636319 183.11788895 -81.5 190.53125 C-80.93012167 184.77013622 -79.78850478 179.62742965 -78 174.1328125 C-77.6051088 172.88751015 -77.6051088 172.88751015 -77.20223999 171.61705017 C-76.61879491 169.77800333 -76.03242416 167.93988279 -75.44354248 166.10256958 C-73.75010623 160.81462072 -72.08226261 155.51861084 -70.4140625 150.22265625 C-70.03875397 149.03214157 -69.66344543 147.84162689 -69.27676392 146.61503601 C-64.53000155 131.51239068 -59.94342502 116.36077954 -55.34231567 101.21327305 C-50.63121637 85.70414097 -45.89772248 70.20182596 -41.16230774 54.70010376 C-40.53886579 52.65852349 -39.91598657 50.6167726 -39.29333496 48.57495117 C-37.39057338 42.33845964 -35.47828435 36.10523883 -33.53790283 29.88034058 C-33.02163626 28.21826137 -32.50971293 26.55482543 -32.00262451 24.8899231 C-26.61783145 7.2329988 -26.61783145 7.2329988 -19.23925781 2.3918457 C-13.14646212 -0.52169724 -6.611523 -0.04501492 0 0 Z " fill="#0B021D" transform="translate(126.5,3.46875)"/>
<path d="M0 0 C0.66 0 1.32 0 2 0 C2.56847656 0.75023437 3.13695313 1.50046875 3.72265625 2.2734375 C10.46502954 10.3457815 23.05882406 13.34754389 33 15 C33.7425 15.13019531 34.485 15.26039063 35.25 15.39453125 C54.16468248 18.08127592 75.85363909 16.07902008 92.29296875 5.953125 C94 5 94 5 96 5 C98.67961503 13.69240974 97.83602828 24.23386207 94.31640625 32.51171875 C88.6629079 43.19800495 79.64499059 49.67831998 69.6875 56.125 C63.49602785 60.18641498 59.39641217 63.81076349 57 71 C56.4326597 77.19902715 56.43635361 83.23179563 59 89 C52.1550612 88.02558868 47.27015821 84.00603577 43.15625 78.55859375 C38.20975998 70.61753747 36.73476235 63.2085851 36.43359375 53.9609375 C36.2266893 49.30108936 35.42145498 45.40192509 34 41 C27.02868574 38.94814752 27.02868574 38.94814752 20.0625 40.125 C14.96108976 43.24831239 13.67196235 46.34105052 12 52 C3.05600864 43.82263647 -1.7442587 33.36147914 -2.31640625 21.18359375 C-2.46761783 13.74556074 -2.36765135 7.10295406 0 0 Z " fill="#FF5804" transform="translate(97,196)"/>
</svg>
