<?xml version="1.0" standalone="no"?>
<!DOCTYPE svg PUBLIC "-//W3C//DTD SVG 20010904//EN"
 "http://www.w3.org/TR/2001/REC-SVG-20010904/DTD/svg10.dtd">
<svg version="1.0" xmlns="http://www.w3.org/2000/svg"
 width="170.000000pt" height="214.000000pt" viewBox="0 0 170.000000 214.000000"
 preserveAspectRatio="xMidYMid meet">

<g transform="translate(0.000000,214.000000) scale(0.100000,-0.100000)"
fill="#000000" stroke="none">
<path d="M455 645 c-11 -104 27 -257 75 -300 18 -16 19 -15 34 13 22 43 54 62
103 62 29 0 50 -7 69 -23 25 -22 28 -32 34 -120 9 -114 40 -189 98 -237 20
-16 39 -30 42 -30 4 0 4 27 2 60 -2 32 -1 71 2 85 10 38 69 99 146 150 126 84
171 155 178 283 5 90 3 93 -50 66 -192 -99 -516 -89 -671 22 -26 19 -49 34
-51 34 -3 0 -8 -29 -11 -65z"/>
</g>
</svg>
