<?xml version="1.0" encoding="UTF-8"?>
<!DOCTYPE svg PUBLIC "-//W3C//DTD SVG 1.1//EN" "http://www.w3.org/Graphics/SVG/1.1/DTD/svg11.dtd">
<svg xmlns="http://www.w3.org/2000/svg" version="1.1" width="313px" height="313px" style="shape-rendering:geometricPrecision; text-rendering:geometricPrecision; image-rendering:optimizeQuality; fill-rule:evenodd; clip-rule:evenodd" xmlns:xlink="http://www.w3.org/1999/xlink">
<g><path style="opacity:1" fill="#fefefe" d="M -0.5,-0.5 C 103.833,-0.5 208.167,-0.5 312.5,-0.5C 312.5,60.5 312.5,121.5 312.5,182.5C 309.918,163.4 299.584,150.234 281.5,143C 270.999,140.168 260.999,136.168 251.5,131C 245.385,124.878 243.885,117.712 247,109.5C 250.239,104.309 254.906,101.976 261,102.5C 274.25,103.792 285.584,109.126 295,118.5C 299.856,110.258 304.523,101.925 309,93.5C 309.667,92.5 309.667,91.5 309,90.5C 292.22,73.5948 272.053,67.0948 248.5,71C 225.404,78.4851 214.404,94.4851 215.5,119C 213.705,142.098 223.372,158.098 244.5,167C 255.296,171.031 265.963,175.365 276.5,180C 282.5,185.811 284,192.645 281,200.5C 277.612,206.863 272.279,209.863 265,209.5C 255.711,208.605 247.544,205.105 240.5,199C 236.095,194.717 231.595,190.55 227,186.5C 220.692,194.812 215.192,203.646 210.5,213C 231.545,240.799 258.212,248.465 290.5,236C 303.151,226.519 310.485,214.019 312.5,198.5C 312.5,236.5 312.5,274.5 312.5,312.5C 208.167,312.5 103.833,312.5 -0.5,312.5C -0.5,288.5 -0.5,264.5 -0.5,240.5C 30.5,240.5 61.5,240.5 92.5,240.5C 92.5,229.167 92.5,217.833 92.5,206.5C 72.8333,206.5 53.1667,206.5 33.5,206.5C 33.5,195.833 33.5,185.167 33.5,174.5C 50.8333,174.5 68.1667,174.5 85.5,174.5C 85.5,163.167 85.5,151.833 85.5,140.5C 68.1667,140.5 50.8333,140.5 33.5,140.5C 33.5,129.167 33.5,117.833 33.5,106.5C 53.1667,106.5 72.8333,106.5 92.5,106.5C 92.5,95.5 92.5,84.5 92.5,73.5C 61.5,73.5 30.5,73.5 -0.5,73.5C -0.5,48.8333 -0.5,24.1667 -0.5,-0.5 Z"/></g>
<g><path style="opacity:1" fill="#c0ca35" d="M 312.5,182.5 C 312.5,187.833 312.5,193.167 312.5,198.5C 310.485,214.019 303.151,226.519 290.5,236C 258.212,248.465 231.545,240.799 210.5,213C 215.192,203.646 220.692,194.812 227,186.5C 231.595,190.55 236.095,194.717 240.5,199C 247.544,205.105 255.711,208.605 265,209.5C 272.279,209.863 277.612,206.863 281,200.5C 284,192.645 282.5,185.811 276.5,180C 265.963,175.365 255.296,171.031 244.5,167C 223.372,158.098 213.705,142.098 215.5,119C 214.404,94.4851 225.404,78.4851 248.5,71C 272.053,67.0948 292.22,73.5948 309,90.5C 309.667,91.5 309.667,92.5 309,93.5C 304.523,101.925 299.856,110.258 295,118.5C 285.584,109.126 274.25,103.792 261,102.5C 254.906,101.976 250.239,104.309 247,109.5C 243.885,117.712 245.385,124.878 251.5,131C 260.999,136.168 270.999,140.168 281.5,143C 299.584,150.234 309.918,163.4 312.5,182.5 Z"/></g>
<g><path style="opacity:1" fill="#c0ca35" d="M -0.5,73.5 C 30.5,73.5 61.5,73.5 92.5,73.5C 92.5,84.5 92.5,95.5 92.5,106.5C 72.8333,106.5 53.1667,106.5 33.5,106.5C 33.5,117.833 33.5,129.167 33.5,140.5C 50.8333,140.5 68.1667,140.5 85.5,140.5C 85.5,151.833 85.5,163.167 85.5,174.5C 68.1667,174.5 50.8333,174.5 33.5,174.5C 33.5,185.167 33.5,195.833 33.5,206.5C 53.1667,206.5 72.8333,206.5 92.5,206.5C 92.5,217.833 92.5,229.167 92.5,240.5C 61.5,240.5 30.5,240.5 -0.5,240.5C -0.5,184.833 -0.5,129.167 -0.5,73.5 Z"/></g>
<g><path style="opacity:1" fill="#c0ca34" d="M 125.5,73.5 C 147.833,73.5 170.167,73.5 192.5,73.5C 192.667,115.501 192.5,157.501 192,199.5C 185.653,238.593 164.153,250.427 127.5,235C 120.365,231.023 114.365,225.856 109.5,219.5C 114.061,210.268 119.061,201.268 124.5,192.5C 128.915,200.038 135.248,205.205 143.5,208C 150.126,209.769 154.96,207.603 158,201.5C 159.463,169.875 159.963,138.208 159.5,106.5C 148.167,106.5 136.833,106.5 125.5,106.5C 125.5,95.5 125.5,84.5 125.5,73.5 Z"/></g>
</svg>
