<?xml version="1.0" standalone="no"?>
<!DOCTYPE svg PUBLIC "-//W3C//DTD SVG 20010904//EN"
 "http://www.w3.org/TR/2001/REC-SVG-20010904/DTD/svg10.dtd">
<svg version="1.0" xmlns="http://www.w3.org/2000/svg"
 width="512.000000pt" height="512.000000pt" viewBox="0 0 512.000000 512.000000"
 preserveAspectRatio="xMidYMid meet">

<g transform="translate(0.000000,512.000000) scale(0.100000,-0.100000)"
fill="#000000" stroke="none">
<path d="M2275 4613 c-106 -12 -243 -38 -325 -60 -245 -65 -610 -245 -610
-301 0 -35 21 -42 118 -42 94 0 95 0 206 54 531 260 1152 254 1687 -14 79 -40
81 -41 176 -38 78 2 98 6 107 21 23 36 -35 81 -229 177 -305 150 -574 211
-920 208 -99 0 -193 -3 -210 -5z"/>
<path d="M3603 3770 c-106 -15 -219 -50 -283 -88 -73 -44 -170 -143 -204 -210
-74 -146 -83 -340 -24 -499 16 -45 38 -75 97 -134 98 -97 176 -137 441 -224
306 -101 391 -150 444 -258 37 -73 37 -181 0 -255 -55 -112 -208 -182 -393
-182 -148 0 -354 48 -490 114 -36 17 -53 21 -56 13 -16 -44 -75 -250 -73 -252
12 -8 164 -66 210 -79 148 -42 406 -64 553 -46 349 41 575 244 600 540 9 96
-12 200 -60 296 -84 172 -214 260 -531 358 -277 87 -365 132 -421 218 -24 36
-28 53 -31 127 -3 78 -1 91 25 141 52 102 161 158 323 167 150 8 284 -22 502
-112 13 -5 21 8 42 77 39 128 50 177 44 183 -16 17 -205 75 -288 89 -114 20
-341 28 -427 16z"/>
<path d="M690 2720 l0 -1030 630 0 630 0 0 135 0 135 -470 0 -470 0 0 335 0
335 425 0 425 0 0 130 0 130 -425 0 -425 0 0 295 0 295 465 0 465 0 0 135 0
135 -625 0 -625 0 0 -1030z"/>
<path d="M2400 2843 c0 -949 -5 -1081 -42 -1180 -40 -108 -144 -185 -278 -206
l-70 -11 0 -129 0 -130 72 7 c96 10 250 50 318 83 71 34 186 150 227 228 79
151 83 218 83 1323 l0 922 -155 0 -155 0 0 -907z"/>
<path d="M1008 1164 c-12 -26 -9 -30 83 -118 275 -262 643 -447 1034 -519 103
-18 156 -22 365 -22 212 0 261 3 366 22 162 30 274 64 426 127 224 94 403 207
596 378 136 121 136 158 2 158 l-78 0 -86 -74 c-116 -99 -236 -178 -384 -252
-568 -286 -1248 -262 -1800 62 -101 60 -270 184 -316 233 -29 30 -33 31 -113
31 -81 0 -84 -1 -95 -26z"/>
</g>
</svg>
