<?xml version="1.0" encoding="UTF-8"?>
<svg version="1.1" xmlns="http://www.w3.org/2000/svg" width="100" height="100">
<path d="M0 0 C4.05332458 0.08811575 6.84673136 1.29209757 10.3203125 3.3046875 C13.84451838 5.14049056 17.59398556 6.16345437 21.41796875 7.19921875 C29.39910586 9.39031353 35.70123352 12.49884482 42.375 17.375 C43.00921875 17.82488281 43.6434375 18.27476563 44.296875 18.73828125 C54.4092581 26.60089105 60.22147459 38.23872077 65.52246094 49.58105469 C66.34596129 51.31389564 67.22294314 53.02100727 68.1015625 54.7265625 C69.375 57.375 69.375 57.375 69.375 59.375 C70.43267578 59.52775391 70.43267578 59.52775391 71.51171875 59.68359375 C79.73952301 61.67038959 89.86049761 68.06580566 94.375 75.375 C94.045 77.025 93.715 78.675 93.375 80.375 C89.085 81.695 84.795 83.015 80.375 84.375 C81.30183594 85.02726562 82.22867188 85.67953125 83.18359375 86.3515625 C84.39388287 87.2334786 85.60348265 88.11634124 86.8125 89 C87.72999023 89.64001953 87.72999023 89.64001953 88.66601562 90.29296875 C91.89279721 92.68185677 93.19345685 93.7096015 94.28515625 97.7109375 C94.31480469 98.59007813 94.34445313 99.46921875 94.375 100.375 C86.60725851 99.51660828 80.27438682 92.70745746 75.1875 87.125 C73.375 84.375 73.375 84.375 73.375 79.375 C77.005 78.385 80.635 77.395 84.375 76.375 C84.375 75.715 84.375 75.055 84.375 74.375 C82.47466818 72.72018874 82.47466818 72.72018874 80 71.0625 C78.63101563 70.1034375 78.63101563 70.1034375 77.234375 69.125 C74.57089572 67.49489246 72.17959289 66.58148883 69.25 65.5625 C61.9150323 62.13033202 60.1031566 53.57426061 57.29101562 46.53808594 C51.87983063 33.76007445 41.81674178 22.50595029 29.375 16.375 C25.09588604 14.79692213 20.77400279 13.56651423 16.375 12.375 C12.80724988 11.26007809 9.49624936 10.0494283 6.1875 8.3125 C3.89007138 7.11167439 1.85320577 6.20106859 -0.625 5.375 C2.14772677 10.3349843 2.14772677 10.3349843 5.375 15 C7.89800941 19.25757837 9.00631937 23.57947682 10.35546875 28.3203125 C11.23377009 30.95185139 12.00284029 32.60799281 13.6875 34.75 C15.375 37.375 15.375 37.375 15.25 40.8125 C14.6773043 43.14418964 14.03348363 45.4598167 13.3125 47.75 C11.43602642 55.00569785 11.79711317 60.76967047 15.375 67.375 C16.035 67.705 16.695 68.035 17.375 68.375 C17.46587891 67.11042969 17.46587891 67.11042969 17.55859375 65.8203125 C17.64238281 64.72460938 17.72617187 63.62890625 17.8125 62.5 C17.89371094 61.40945312 17.97492187 60.31890625 18.05859375 59.1953125 C18.375 56.375 18.375 56.375 19.375 54.375 C21.625 54.39453125 21.625 54.39453125 24.375 55.375 C25.94736868 57.95690085 27.17788605 60.31546412 28.375 63.0625 C31.34845772 69.70443096 34.14039232 75.21859488 40.375 79.375 C40.045 81.025 39.715 82.675 39.375 84.375 C33.90990078 83.52107825 30.84062657 79.39455869 27.375 75.375 C25.83265182 73.08718353 24.6123617 70.8497234 23.375 68.375 C23.024375 69.2 22.67375 70.025 22.3125 70.875 C20.375 73.375 20.375 73.375 17 74 C12.46977902 73.21892742 11.13465783 72.00197886 8.375 68.375 C5.25479183 60.6125309 5.45277861 52.24391766 7.6875 44.25 C8.91953829 38.97105817 7.18094327 35.71125852 4.734375 31.03515625 C3.49093415 28.60187114 2.68406761 26.36753889 1.9375 23.75 C0.8670071 20.25845048 -0.6583263 17.75687293 -2.8125 14.8125 C-5.93272514 10.39927833 -6.37405669 7.71202893 -5.625 2.375 C-3.625 0.375 -3.625 0.375 0 0 Z " fill="#000000" transform="translate(5.625,-0.375)"/>
<path d="M0 0 C2.8125 0.1875 2.8125 0.1875 6 1 C7.9375 3.375 7.9375 3.375 9 6 C8.67 6.99 8.34 7.98 8 9 C4.84526281 8.64947365 3.1766466 8.13480924 0.625 6.1875 C-1 4 -1 4 -0.75 1.75 C-0.5025 1.1725 -0.255 0.595 0 0 Z " fill="#000000" transform="translate(19,14)"/>
</svg>
