<?xml version="1.0" standalone="no"?>
<!DOCTYPE svg PUBLIC "-//W3C//DTD SVG 20010904//EN"
 "http://www.w3.org/TR/2001/REC-SVG-20010904/DTD/svg10.dtd">
<svg version="1.0" xmlns="http://www.w3.org/2000/svg"
 width="720.000000pt" height="720.000000pt" viewBox="0 0 720.000000 720.000000"
 preserveAspectRatio="xMidYMid meet">

<g transform="translate(0.000000,720.000000) scale(0.100000,-0.100000)"
fill="#000000" stroke="none">
<path d="M3375 6953 c-937 -61 -1811 -521 -2409 -1268 -256 -320 -480 -756
-596 -1158 -168 -585 -171 -1243 -8 -1822 206 -737 645 -1371 1255 -1817 711
-519 1600 -739 2473 -612 875 127 1667 600 2199 1312 365 487 579 1029 653
1657 19 162 16 597 -6 760 -117 896 -551 1668 -1251 2229 -320 256 -754 479
-1158 596 -353 102 -780 147 -1152 123z m75 -2795 c983 -1265 1535 -1978 1682
-2172 l128 -169 -27 -26 c-16 -14 -44 -37 -63 -51 -44 -31 -53 -38 -97 -77
-20 -18 -39 -33 -42 -33 -4 0 -23 -15 -42 -32 -44 -41 -76 -63 -91 -63 -14 0
-287 349 -1406 1795 -458 591 -836 1074 -839 1073 -4 -2 -7 -506 -7 -1120 l-1
-1118 -242 -3 -243 -2 0 1440 0 1440 303 0 302 0 685 -882z m1630 352 l0 -530
-237 2 -238 3 -3 528 -2 527 240 0 240 0 0 -530z"/>
</g>
</svg>
