<?xml version="1.0" encoding="UTF-8"?>
<svg version="1.1" xmlns="http://www.w3.org/2000/svg" width="100" height="100">
<path d="M0 0 C2.91336161 1.22643979 5.59341657 2.76926301 8.3125 4.375 C9.47652344 5.04414429 9.47652344 5.04414429 10.6640625 5.72680664 C12.29064312 6.6647511 13.91381301 7.60863283 15.53369141 8.55810547 C17.97475233 9.98523929 20.42865562 11.38755057 22.88671875 12.78515625 C24.42505339 13.66827132 25.96283521 14.55235024 27.5 15.4375 C28.22356689 15.84983887 28.94713379 16.26217773 29.69262695 16.68701172 C32.91934064 18.57272824 34.89615239 19.84422859 37 23 C37.27415466 24.99752808 37.27415466 24.99752808 37.30639648 27.30029297 C37.32238388 28.164841 37.33837128 29.02938904 37.35484314 29.9201355 C37.36020584 30.85141266 37.36556854 31.78268982 37.37109375 32.7421875 C37.38012222 33.70271027 37.3891507 34.66323303 37.39845276 35.65286255 C37.41296288 37.68537272 37.42184388 39.71792968 37.42553711 41.75048828 C37.43742954 44.85659716 37.48660435 47.96071698 37.53710938 51.06640625 C37.54657409 53.04165697 37.55380889 55.0169199 37.55859375 56.9921875 C37.57812607 57.9194162 37.59765839 58.8466449 37.61778259 59.80197144 C37.58717789 64.18719118 37.50833731 66.32026053 34.82202148 69.91235352 C32.04556315 71.96629375 29.31802552 73.75124803 26.2890625 75.41015625 C25.20882812 76.00763672 24.12859375 76.60511719 23.015625 77.22070312 C21.89671875 77.82849609 20.7778125 78.43628906 19.625 79.0625 C17.40879354 80.28244195 15.19264612 81.50249116 12.9765625 82.72265625 C11.9340332 83.28871582 10.89150391 83.85477539 9.81738281 84.43798828 C7.5240213 85.70947242 5.30826718 87.04509585 3.0859375 88.43359375 C-0.4144183 90.21035663 -2.13707601 90.64550166 -6 90 C-8.45677917 88.74642703 -10.60498589 87.52019045 -12.875 86 C-13.76445313 85.42765625 -13.76445313 85.42765625 -14.671875 84.84375 C-16.12244056 83.90790125 -17.56235847 82.95558369 -19 82 C-17.25314765 80.14773415 -16.13216229 79.05506762 -13.75 78.0625 C-10.24048686 77.98273834 -8.68699545 79.21438657 -5.94140625 81.28515625 C-2.91034473 82.40122115 -0.95646643 81.13615903 2 80 C3.93774227 78.98868499 5.84784148 77.92304838 7.73046875 76.8125 C8.78041016 76.19632812 9.83035156 75.58015625 10.91210938 74.9453125 C11.99298828 74.30335937 13.07386719 73.66140625 14.1875 73 C15.27998047 72.35804687 16.37246094 71.71609375 17.49804688 71.0546875 C23.31542111 67.63382262 23.31542111 67.63382262 29 64 C29.4784652 61.21188756 29.75318539 58.65389332 29.890625 55.84375 C29.9549321 54.62179428 29.9549321 54.62179428 30.02053833 53.37515259 C31.30885897 37.92595015 31.30885897 37.92595015 27.54394531 23.35644531 C23.79134536 19.66728076 19.29116713 18.16274878 14.30517578 16.75683594 C10.59827286 15.53978457 7.55031199 13.3833455 4.3125 11.25 C1.18486329 9.14804907 1.18486329 9.14804907 -2 8 C-6.31586881 9.10556474 -9.90849769 10.93294658 -13.73046875 13.1875 C-15.30538086 14.11175781 -15.30538086 14.11175781 -16.91210938 15.0546875 C-17.99298828 15.69664063 -19.07386719 16.33859375 -20.1875 17 C-21.27998047 17.64195313 -22.37246094 18.28390625 -23.49804688 18.9453125 C-29.31542111 22.36617738 -29.31542111 22.36617738 -35 26 C-35.36631575 28.84884618 -35.54010316 31.47434595 -35.57421875 34.33203125 C-35.5889473 35.16079269 -35.60367584 35.98955414 -35.61885071 36.84342957 C-35.64282654 38.59938311 -35.65823044 40.35547124 -35.66577148 42.11157227 C-35.68734731 44.79351983 -35.76746456 47.46970676 -35.84960938 50.15039062 C-35.86560788 51.85674067 -35.87809152 53.56312802 -35.88671875 55.26953125 C-35.91859787 56.06865433 -35.95047699 56.8677774 -35.98332214 57.69111633 C-35.95494623 60.04760798 -35.83794991 61.79370341 -35 64 C-31.77160083 67.04514716 -28.45973782 68.81365049 -24.0625 69.375 C-22.01515258 69.20488924 -22.01515258 69.20488924 -21 68 C-20.83970312 65.04470496 -20.74042672 62.11017543 -20.68359375 59.15234375 C-20.66281265 58.2659169 -20.64203156 57.37949005 -20.62062073 56.46620178 C-20.555026 53.623383 -20.49619448 50.78046883 -20.4375 47.9375 C-20.3943242 46.01496394 -20.35071022 44.09243766 -20.30664062 42.16992188 C-20.19933457 37.44671332 -20.09809549 32.72340847 -20 28 C-17.69 28 -15.38 28 -13 28 C-12.95055451 34.05060637 -12.91425871 40.10109505 -12.89013672 46.15185547 C-12.88008046 48.21014454 -12.86643371 50.26841933 -12.84912109 52.32666016 C-12.82485646 55.28551763 -12.81351312 58.24418617 -12.8046875 61.203125 C-12.79436493 62.12305237 -12.78404236 63.04297974 -12.77340698 63.99078369 C-12.77325592 64.8513739 -12.77310486 65.71196411 -12.77294922 66.59863281 C-12.768508 67.35364075 -12.76406677 68.10864868 -12.75949097 68.88653564 C-13.04072904 71.35790497 -13.66960942 72.90242109 -15 75 C-19.38936507 77.92624338 -22.85442564 78.00272731 -28 77 C-40.64945652 71.70108696 -40.64945652 71.70108696 -43 67 C-43.11414973 65.60760197 -43.16929997 64.2101028 -43.19287109 62.81323242 C-43.20893402 61.94860886 -43.22499695 61.08398529 -43.24154663 60.19316101 C-43.28600609 56.23709897 -43.3270618 52.28120462 -43.35009766 48.32495117 C-43.36665749 46.23857469 -43.39394778 44.15225493 -43.43212891 42.06616211 C-43.48690264 39.0581316 -43.50877242 36.05143083 -43.5234375 33.04296875 C-43.54610687 32.112603 -43.56877625 31.18223724 -43.59213257 30.22367859 C-43.57779825 25.82747552 -43.51431962 23.68895283 -40.82421875 20.08544922 C-38.04648705 18.03432679 -35.31747776 16.24845198 -32.2890625 14.58984375 C-31.20882813 13.99236328 -30.12859375 13.39488281 -29.015625 12.77929688 C-27.89671875 12.17150391 -26.7778125 11.56371094 -25.625 10.9375 C-23.40879354 9.71755805 -21.19264612 8.49750884 -18.9765625 7.27734375 C-17.9340332 6.71128418 -16.89150391 6.14522461 -15.81738281 5.56201172 C-13.5240213 4.29052758 -11.30826718 2.95490415 -9.0859375 1.56640625 C-5.54358597 -0.23167345 -3.910258 -0.66409958 0 0 Z " fill="#20A365" transform="translate(53,5)"/>
<path d="M0 0 C3.08018666 2.97751377 3.52419687 5.8129325 4 10 C-1.95703125 10.48828125 -1.95703125 10.48828125 -4 10 C-4.680625 8.7625 -4.680625 8.7625 -5.375 7.5 C-5.91125 6.675 -6.4475 5.85 -7 5 C-9.96381518 4.39518228 -9.96381518 4.39518228 -13.1875 4.6875 C-14.27417969 4.73261719 -15.36085938 4.77773438 -16.48046875 4.82421875 C-17.31191406 4.88222656 -18.14335938 4.94023438 -19 5 C-19.33 6.32 -19.66 7.64 -20 9 C-19.45061768 9.10022461 -18.90123535 9.20044922 -18.33520508 9.30371094 C-15.82454239 9.77063861 -13.318773 10.26007939 -10.8125 10.75 C-9.51602539 10.98589844 -9.51602539 10.98589844 -8.19335938 11.2265625 C-3.16856385 12.22767119 0.29022517 13.22331541 4 17 C5.57455739 20.14911479 5.34799118 22.52008816 5 26 C2.15665311 30.30563957 -0.11349422 32.479908 -5 34 C-12.06651218 34.72606935 -19.26341677 35.05223492 -25.5078125 31.2734375 C-27.98526098 29.15917518 -29.03963354 27.07317268 -30 24 C-29.6875 21.625 -29.6875 21.625 -29 20 C-26.25 19.625 -26.25 19.625 -23 20 C-22.484375 20.99 -21.96875 21.98 -21.4375 23 C-19.31240831 26.3103941 -19.31240831 26.3103941 -15.93359375 26.43359375 C-9.78344761 26.64395925 -9.78344761 26.64395925 -4 25 C-4 23.68 -4 22.36 -4 21 C-4.54938232 20.89977539 -5.09876465 20.79955078 -5.66479492 20.69628906 C-8.17545761 20.22936139 -10.681227 19.73992061 -13.1875 19.25 C-14.48397461 19.01410156 -14.48397461 19.01410156 -15.80664062 18.7734375 C-20.81078188 17.77644384 -24.34749968 16.8135324 -28 13 C-29.35311176 9.19437317 -29.06065376 7.22366074 -28 3.3125 C-26.04157749 0.06886272 -24.81679443 -1.33783672 -21.22265625 -2.56640625 C-13.80212829 -4.01399606 -6.56333616 -3.91007261 0 0 Z " fill="#20A365" transform="translate(72,35)"/>
</svg>
