<?xml version="1.0" encoding="UTF-8"?>
<svg version="1.1" xmlns="http://www.w3.org/2000/svg" width="512" height="512">
<path d="M0 0 C12.40692504 11.67431057 21.76855312 25.41067884 27.52978516 41.43945312 C27.86880859 42.33019531 28.20783203 43.2209375 28.55712891 44.13867188 C34.66742508 63.426934 30.80666286 85.0894303 21.79858398 102.66308594 C13.56150873 117.94204564 1.31091886 131.02498564 -12.47021484 141.43945312 C-13.48212891 142.21675781 -14.49404297 142.9940625 -15.53662109 143.79492188 C-74.00052519 187.71105637 -152.82574627 200.64993861 -224.28271484 200.68945312 C-225.38492371 200.69012787 -226.48713257 200.69080261 -227.6227417 200.6914978 C-246.73087404 200.67301732 -265.51517173 199.85989902 -284.47021484 197.43945312 C-285.13696228 197.35459656 -285.80370972 197.26973999 -286.49066162 197.18231201 C-313.02699958 193.7686742 -339.15566453 188.17188936 -364.47021484 179.43945312 C-365.31535645 179.15521484 -366.16049805 178.87097656 -367.03125 178.578125 C-407.79035847 164.81086823 -452.56841801 141.15914121 -473.44482422 101.59228516 C-475.38519212 97.63337781 -476.98000781 93.58547467 -478.47021484 89.43945312 C-478.80923828 88.54871094 -479.14826172 87.65796875 -479.49755859 86.74023438 C-485.60785477 67.45197225 -481.74709255 45.78947595 -472.73901367 28.21582031 C-464.50193841 12.93686061 -452.25134855 -0.14607939 -438.47021484 -10.56054688 C-437.45830078 -11.33785156 -436.44638672 -12.11515625 -435.40380859 -12.91601562 C-389.97263531 -47.04239749 -331.93512925 -61.17057978 -276.47021484 -67.56054688 C-275.48279297 -67.67914063 -274.49537109 -67.79773438 -273.47802734 -67.91992188 C-185.10458604 -78.0889206 -77.16460239 -64.00324814 0 0 Z " fill="#787CB2" transform="translate(481.47021484375,190.560546875)"/>
<path d="M0 0 C0.72015289 -0.00570007 1.44030579 -0.01140015 2.18228149 -0.01727295 C3.70711803 -0.02672335 5.23197499 -0.03325709 6.75683594 -0.03710938 C9.08565062 -0.04680873 11.41358026 -0.0778274 13.7421875 -0.109375 C15.22395309 -0.11590587 16.705725 -0.12115601 18.1875 -0.125 C18.88241547 -0.1373468 19.57733093 -0.1496936 20.29330444 -0.16241455 C23.31422189 -0.14855052 25.48672836 0.08269966 28.20336914 1.44677734 C29.7265625 3.203125 29.7265625 3.203125 29.98852539 5.25732422 C29.8143811 6.43319092 29.8143811 6.43319092 29.63671875 7.6328125 C29.5092627 8.51936523 29.38180664 9.40591797 29.25048828 10.31933594 C28.33640219 15.35064296 27.29650009 20.34159308 26.1640625 25.328125 C25.93009766 26.38 25.69613281 27.431875 25.45507812 28.515625 C24.88407125 31.07932935 24.30782431 33.64172996 23.7265625 36.203125 C24.61214844 36.18217773 25.49773437 36.16123047 26.41015625 36.13964844 C69.35125857 35.25714399 69.35125857 35.25714399 81.42578125 46.83203125 C84.93102559 50.62584292 86.95174149 54.37166782 88.7265625 59.203125 C90.70146689 53.66830712 91.77313102 48.11325163 92.84765625 42.34765625 C93.75724131 39.09336302 94.05514832 38.12352972 96.7265625 36.203125 C99.59484863 35.8289032 99.59484863 35.8289032 103.13476562 35.83081055 C103.78077728 35.82715988 104.42678894 35.82350922 105.09237671 35.81974792 C107.23112196 35.81163521 109.36911045 35.82526942 111.5078125 35.83984375 C113.00174967 35.84036278 114.49568753 35.83984342 115.98962402 35.83833313 C119.12697502 35.83842292 122.26406946 35.84885607 125.40136719 35.86694336 C129.39444172 35.88947399 133.38713628 35.89020385 137.38025665 35.88342571 C140.47065516 35.88005672 143.56096949 35.88677299 146.65135193 35.89655495 C148.12153175 35.90036885 149.59172101 35.90157122 151.06190491 35.8999691 C167.83528951 35.89691669 184.21225314 37.86297104 196.7265625 50.203125 C199.1226959 53.03345707 200.98537961 55.9324532 202.7265625 59.203125 C203.14035156 59.97914063 203.55414063 60.75515625 203.98046875 61.5546875 C209.30490798 73.53931378 207.99301794 89.08913304 203.7265625 101.203125 C203.37464844 102.20730469 203.02273438 103.21148437 202.66015625 104.24609375 C196.8512648 119.37221704 185.60689478 133.25747141 170.7265625 140.203125 C157.12910085 145.84064009 143.3995189 146.50168195 128.9140625 146.328125 C127.43164676 146.31806152 125.94922431 146.3089417 124.46679688 146.30078125 C120.88657576 146.27906575 117.30661442 146.24472746 113.7265625 146.203125 C113.61586426 146.8830249 113.50516602 147.5629248 113.39111328 148.26342773 C112.88057702 151.38959902 112.36609575 154.51510919 111.8515625 157.640625 C111.59052734 159.24454102 111.59052734 159.24454102 111.32421875 160.88085938 C110.81046764 163.99190776 110.27682962 167.09833684 109.7265625 170.203125 C109.57026367 171.09016113 109.41396484 171.97719727 109.25292969 172.89111328 C109.01944824 174.08389893 109.01944824 174.08389893 108.78125 175.30078125 C108.58378174 176.33150757 108.58378174 176.33150757 108.38232422 177.38305664 C107.50819056 179.80921688 106.89291424 180.75067834 104.7265625 182.203125 C102.10402792 182.50131078 99.72362284 182.62371424 97.1015625 182.6015625 C95.986604 182.60586777 95.986604 182.60586777 94.84912109 182.61026001 C93.2789636 182.61229976 91.70878064 182.606776 90.13867188 182.59423828 C87.73509918 182.57818203 85.33320789 182.59408852 82.9296875 182.61328125 C81.40364212 182.6112988 79.87759779 182.60745509 78.3515625 182.6015625 C77.63274902 182.60763519 76.91393555 182.61370789 76.17333984 182.6199646 C73.29095584 182.57933046 71.21957027 182.52615344 68.77148438 180.92211914 C64.98608846 174.69478908 68.76416204 164.19771245 70.2265625 157.640625 C70.46503906 156.53654297 70.70351563 155.43246094 70.94921875 154.29492188 C71.53345499 151.59575042 72.12605215 148.89871376 72.7265625 146.203125 C71.15974731 146.22669067 71.15974731 146.22669067 69.5612793 146.25073242 C65.68684598 146.30502197 61.81244631 146.3394713 57.93774414 146.36791992 C56.2606033 146.38300884 54.58350193 146.40348248 52.90649414 146.42944336 C50.49615746 146.46582311 48.08634231 146.48284986 45.67578125 146.49609375 C44.92568283 146.51157761 44.17558441 146.52706146 43.40275574 146.54301453 C38.19060065 146.54470052 38.19060065 146.54470052 35.99372864 144.92759705 C34.06180373 142.29846232 34.80027993 139.92913263 35.25976562 136.84832764 C35.41380859 135.97541077 35.56785156 135.1024939 35.7265625 134.203125 C35.88576172 133.28750793 36.04496094 132.37189087 36.20898438 131.42852783 C36.77325812 128.31953196 37.37135018 125.21846618 37.9765625 122.1171875 C38.4245682 119.78126707 38.87248203 117.44532903 39.3203125 115.109375 C40.02292738 111.46676825 40.72726448 107.82450553 41.43359375 104.18261719 C42.11916114 100.64083816 42.79816211 97.09784524 43.4765625 93.5546875 C43.68700195 92.48038483 43.89744141 91.40608215 44.11425781 90.29922485 C44.31116211 89.26800507 44.50806641 88.23678528 44.7109375 87.17431641 C44.88334961 86.28434967 45.05576172 85.39438293 45.23339844 84.47744751 C45.94591739 79.74673612 46.29343327 74.96754654 46.7265625 70.203125 C31.8765625 69.708125 31.8765625 69.708125 16.7265625 69.203125 C16.3965625 72.833125 16.0665625 76.463125 15.7265625 80.203125 C15.28754785 82.88931816 14.80559125 85.56897798 14.2734375 88.23828125 C14.13301529 88.95213486 13.99259308 89.66598846 13.84791565 90.401474 C13.396389 92.69067584 12.93698039 94.97819626 12.4765625 97.265625 C11.83822081 100.46452152 11.20229051 103.66389547 10.56640625 106.86328125 C10.40830978 107.65546051 10.25021332 108.44763977 10.08732605 109.26382446 C9.10022485 114.23360679 8.17402343 119.20952718 7.29296875 124.19921875 C7.07866211 125.39216553 6.86435547 126.5851123 6.64355469 127.81420898 C6.25035265 130.01858597 5.86885037 132.22509286 5.50097656 134.43383789 C5.32405273 135.40957764 5.14712891 136.38531738 4.96484375 137.390625 C4.82087158 138.22980469 4.67689941 139.06898438 4.52856445 139.93359375 C3.44636756 142.99602977 2.3739143 144.29876221 -0.2734375 146.203125 C-2.98763949 146.58915068 -5.28739068 146.74185788 -7.99609375 146.69921875 C-8.73798447 146.70067398 -9.47987518 146.70212921 -10.24424744 146.70362854 C-11.80846088 146.70197233 -13.37269108 146.69044195 -14.93676758 146.66967773 C-17.33159457 146.64067759 -19.72421292 146.64908144 -22.11914062 146.66210938 C-23.64063576 146.65587288 -25.16212391 146.64748262 -26.68359375 146.63671875 C-27.39927017 146.63965439 -28.11494659 146.64259003 -28.85231018 146.64561462 C-31.73731821 146.59079784 -33.80190908 146.5097143 -36.25561523 144.91430664 C-39.43816964 139.56373725 -35.17721107 128.87615914 -33.89453125 123.2421875 C-33.1733218 120.23023065 -33.1733218 120.23023065 -33.2734375 117.203125 C-33.74652344 117.8321875 -34.21960938 118.46125 -34.70703125 119.109375 C-45.75371195 133.40761279 -59.47715826 142.97551581 -77.63085938 145.81933594 C-84.91114506 146.58640089 -92.2120862 146.40725541 -99.5234375 146.328125 C-101.15494238 146.318068 -102.78645331 146.30894699 -104.41796875 146.30078125 C-108.3699442 146.27899952 -112.32162192 146.24462226 -116.2734375 146.203125 C-116.2537793 147.2341333 -116.23412109 148.2651416 -116.21386719 149.32739258 C-116.30100557 154.99674432 -117.42716694 160.34195734 -118.5234375 165.890625 C-118.72839844 167.01791016 -118.93335938 168.14519531 -119.14453125 169.30664062 C-119.35722656 170.39009766 -119.56992188 171.47355469 -119.7890625 172.58984375 C-119.97758789 173.57170654 -120.16611328 174.55356934 -120.36035156 175.56518555 C-121.49073493 178.83090541 -122.43651771 180.20867388 -125.2734375 182.203125 C-127.98763949 182.58915068 -130.28739068 182.74185788 -132.99609375 182.69921875 C-134.10892982 182.7014016 -134.10892982 182.7014016 -135.24424744 182.70362854 C-136.80846088 182.70197233 -138.37269108 182.69044195 -139.93676758 182.66967773 C-142.33159457 182.64067759 -144.72421292 182.64908144 -147.11914062 182.66210938 C-148.64063576 182.65587288 -150.16212391 182.64748262 -151.68359375 182.63671875 C-152.39927017 182.63965439 -153.11494659 182.64259003 -153.85231018 182.64561462 C-156.7239894 182.59105109 -158.80161309 182.50475083 -161.25512695 180.9362793 C-165.16263461 174.28574062 -159.63029884 160.24610677 -158.1484375 152.828125 C-157.83349227 151.23317001 -157.5190492 149.63811579 -157.20507812 148.04296875 C-156.55369363 144.73561652 -155.90017095 141.42869768 -155.24511719 138.12207031 C-153.88062738 131.22571849 -152.54253071 124.3242626 -151.20407104 117.42282104 C-150.4822552 113.70222892 -149.75865303 109.98198431 -149.03515625 106.26171875 C-148.89137039 105.5221846 -148.74758453 104.78265045 -148.59944153 104.02070618 C-147.69511559 99.36985554 -146.7898887 94.71918105 -145.88400269 90.06863403 C-145.42080296 87.69033352 -144.95795603 85.31196452 -144.49511719 82.93359375 C-143.89719057 79.86164785 -143.29742344 76.7900697 -142.69628906 73.71875 C-141.44048757 67.29187618 -140.1995845 60.86505649 -139.05078125 54.41796875 C-138.87313232 53.43368896 -138.6954834 52.44940918 -138.51245117 51.43530273 C-138.19967753 49.68779909 -137.8956009 47.9387022 -137.6027832 46.18774414 C-136.86930913 42.10903063 -136.28397228 39.12248545 -133.2734375 36.203125 C-130.31817627 35.69519043 -130.31817627 35.69519043 -126.65332031 35.68554688 C-125.98447311 35.6785376 -125.31562592 35.67152832 -124.62651062 35.66430664 C-122.409441 35.64667246 -120.19364583 35.65838292 -117.9765625 35.671875 C-116.42494463 35.66917781 -114.87332842 35.6652935 -113.32171631 35.66027832 C-110.05985518 35.65437286 -106.79843139 35.66296533 -103.53662109 35.68164062 C-99.39795813 35.70420398 -95.26034582 35.69146031 -91.12172318 35.66735077 C-87.90930638 35.65272468 -84.69712804 35.65757834 -81.48470306 35.66786194 C-79.96200176 35.67049513 -78.43927742 35.66738229 -76.91660309 35.65794373 C-60.81437292 35.58016896 -45.72644969 38.16936961 -33.4609375 49.515625 C-28.64058986 54.64292874 -25.83697047 60.72633787 -23.2734375 67.203125 C-23.0875708 66.24349854 -22.9017041 65.28387207 -22.71020508 64.29516602 C-21.03505195 55.64974026 -19.35518853 47.00524452 -17.66905212 38.36195374 C-16.93843872 34.6166988 -16.20855882 30.87131498 -15.48339844 27.125 C-14.81390195 23.67094465 -14.13840795 20.21812367 -13.4609375 16.765625 C-13.16956909 15.25174194 -13.16956909 15.25174194 -12.87231445 13.70727539 C-12.68886475 12.77906982 -12.50541504 11.85086426 -12.31640625 10.89453125 C-12.16196045 10.10248291 -12.00751465 9.31043457 -11.84838867 8.49438477 C-11.20426218 5.92745181 -10.39364137 3.60171864 -9.2734375 1.203125 C-6.30200958 -0.28258896 -3.25952856 0.01981876 0 0 Z " fill="#F6F6F7" transform="translate(237.2734375,154.796875)"/>
<path d="M0 0 C8.05090224 -0.09359602 16.10156885 -0.16421079 24.15288448 -0.20724869 C27.89338131 -0.22792785 31.63350001 -0.25587369 35.3737793 -0.30175781 C79.30763506 -0.82626383 79.30763506 -0.82626383 92.79296875 11.66015625 C102.48010133 22.16052959 102.53841727 33.47152649 102 47 C100.90685933 59.07139624 95.90451337 69.94606075 88 79 C87.37222656 79.825 86.74445313 80.65 86.09765625 81.5 C76.58605207 92.83599008 61.31027984 98.25976494 46.97192383 99.79931641 C40.14259008 100.26047736 33.27916214 100.10005651 26.4375 100.0625 C24.84049619 100.05747543 23.24349086 100.05291421 21.64648438 100.04882812 C17.76428467 100.03789728 13.88215949 100.02068533 10 100 C9.9575415 100.56960449 9.91508301 101.13920898 9.87133789 101.72607422 C9.2471162 108.9785921 7.9151592 116.0036939 6.4375 123.125 C5.633125 127.04375 4.82875 130.9625 4 135 C-5.57 135 -15.14 135 -25 135 C-25 129.37486475 -24.89988911 125.55424662 -23.75 120.29296875 C-23.47542969 119.00664551 -23.20085937 117.72032227 -22.91796875 116.39501953 C-22.7689209 115.71264221 -22.61987305 115.03026489 -22.46630859 114.32720947 C-21.64467968 110.55707274 -20.85337692 106.78059505 -20.0625 103.00390625 C-19.89395508 102.20027649 -19.72541016 101.39664673 -19.55175781 100.56866455 C-17.54977058 90.94923889 -15.77546462 81.28830509 -14 71.625 C-13.33017874 67.98814241 -12.65953526 64.35143717 -11.98828125 60.71484375 C-11.82338699 59.82131195 -11.65849274 58.92778015 -11.48860168 58.00717163 C-9.77127804 48.72428705 -7.98958103 39.45425681 -6.1875 30.1875 C-6.04642822 29.45936096 -5.90535645 28.73122192 -5.76000977 27.98101807 C-5.3559679 25.8971787 -4.94986708 23.81375205 -4.54296875 21.73046875 C-4.31633545 20.56926514 -4.08970215 19.40806152 -3.85620117 18.21166992 C-2.64042108 12.12677302 -1.30842412 6.06548584 0 0 Z " fill="#030303" transform="translate(336,196)"/>
<path d="M0 0 C8.00691639 -0.0466293 16.0137747 -0.08202293 24.02079391 -0.10362434 C27.73998611 -0.11399926 31.45908445 -0.12804128 35.17822266 -0.15087891 C38.77682652 -0.17283455 42.37534091 -0.18461574 45.97400665 -0.18975449 C47.99439956 -0.1951718 50.01475719 -0.21074705 52.03509521 -0.22659302 C67.09243668 -0.22839768 81.52899882 1.73176631 93.0625 12.3125 C101.88508685 22.18486301 102.55383304 33.23603346 102.140625 45.82080078 C101.84013585 50.47733927 100.61045486 54.64968038 99 59 C98.73316406 59.825 98.46632813 60.65 98.19140625 61.5 C92.8858399 76.59138873 81.17964647 88.12888597 67 95 C63.70615211 96.23180887 60.42061431 97.19442054 57 98 C56.38630554 98.17313217 55.77261108 98.34626434 55.14031982 98.52464294 C52.8873634 99.02501617 50.90449747 99.12030735 48.59863281 99.11352539 C47.7380426 99.11344986 46.87745239 99.11337433 45.99078369 99.11329651 C45.07085632 99.10813522 44.15092896 99.10297394 43.203125 99.09765625 C41.77996979 99.09553383 41.77996979 99.09553383 40.32806396 99.09336853 C37.30201038 99.08777742 34.27603117 99.07522652 31.25 99.0625 C29.19661565 99.05748385 27.14323014 99.05292115 25.08984375 99.04882812 C20.05986724 99.03781089 15.02994622 99.02055233 10 99 C9.80881592 100.25917236 9.61763184 101.51834473 9.4206543 102.81567383 C6.80389924 119.84829901 6.80389924 119.84829901 4.8125 127.6875 C4.214375 130.100625 3.61625 132.51375 3 135 C-6.57 135 -16.14 135 -26 135 C-24.87508278 123.75082782 -24.87508278 123.75082782 -23.97192383 119.30786133 C-23.77091568 118.30638062 -23.56990753 117.3048999 -23.36280823 116.27307129 C-23.14640182 115.22002808 -22.92999542 114.16698486 -22.70703125 113.08203125 C-22.48051376 111.9592981 -22.25399628 110.83656494 -22.02061462 109.67980957 C-21.53802899 107.29039527 -21.05328178 104.90141665 -20.56652832 102.5128479 C-19.54923545 97.52054529 -18.54250171 92.52613242 -17.53530884 87.53178406 C-17.03711441 85.06171782 -16.53840015 82.59175636 -16.03915405 80.12190247 C-14.2352614 71.19302637 -12.46865412 62.25817411 -10.75 53.3125 C-10.52844238 52.16144775 -10.30688477 51.01039551 -10.07861328 49.82446289 C-9.6315372 47.49911212 -9.18492556 45.17367201 -8.73876953 42.84814453 C-7.38612382 35.80240704 -6.02761426 28.75781405 -4.66394043 21.71420288 C-4.19787642 19.30366798 -3.73416039 16.89268913 -3.27050781 14.48168945 C-2.98646118 13.01380888 -2.70228802 11.54595279 -2.41796875 10.078125 C-2.16813232 8.78293945 -1.9182959 7.48775391 -1.66088867 6.15332031 C-1 3 -1 3 0 0 Z " fill="#030303" transform="translate(107,196)"/>
<path d="M0 0 C1.20970459 0.00523682 2.41940918 0.01047363 3.66577148 0.01586914 C4.97094727 0.0190918 6.27612305 0.02231445 7.62084961 0.02563477 C9.00952213 0.03399138 10.39819401 0.04245634 11.78686523 0.05102539 C13.17944179 0.05603873 14.57202005 0.06060193 15.96459961 0.06469727 C19.38456394 0.07653105 22.80444367 0.09301659 26.22436523 0.11352539 C25.60077079 3.88459252 24.97522462 7.65533355 24.34936523 11.42602539 C24.1753418 12.47854492 24.00131836 13.53106445 23.82202148 14.61547852 C22.68476329 21.46008799 21.48708276 28.29094192 20.22436523 35.11352539 C21.1204248 35.10305176 22.01648438 35.09257812 22.93969727 35.08178711 C26.33555793 35.047247 29.731226 35.02240781 33.12719727 35.00366211 C34.58360786 34.99374149 36.0399993 34.98020071 37.49633789 34.96264648 C68.34051021 34.60077559 68.34051021 34.60077559 79.09936523 43.48852539 C85.72572831 51.67403272 86.78381022 57.79176544 86.22436523 68.11352539 C85.74885857 71.49610686 85.00307207 74.78910446 84.22436523 78.11352539 C81.50279095 90.39592157 79.19391028 102.74323944 76.91186523 115.11352539 C76.54664319 117.08878809 76.18140905 119.06404855 75.81616211 121.03930664 C74.94919583 125.73016216 74.08693126 130.42185113 73.22436523 135.11352539 C63.32436523 135.11352539 53.42436523 135.11352539 43.22436523 135.11352539 C44.34945059 124.98775719 44.34945059 124.98775719 45.04052734 121.47094727 C45.19416245 120.67982544 45.34779755 119.88870361 45.50608826 119.0736084 C45.6696431 118.25146851 45.83319794 117.42932861 46.00170898 116.58227539 C46.17311905 115.70631714 46.34452911 114.83035889 46.52113342 113.92785645 C46.88168092 112.08885635 47.2439628 110.2501955 47.60791016 108.41186523 C48.16024004 105.62173516 48.70742582 102.83063544 49.25366211 100.03930664 C49.60687843 98.24107074 49.96038443 96.44289171 50.31420898 94.64477539 C50.47573959 93.8226355 50.6372702 93.00049561 50.80369568 92.15344238 C51.7359678 87.44935602 52.73758932 82.7697666 53.83151245 78.10043335 C54.41820356 75.13316092 54.45166068 72.25574342 54.41186523 69.23852539 C54.40541992 68.14797852 54.39897461 67.05743164 54.39233398 65.93383789 C54.34193848 63.03413207 54.34193848 63.03413207 53.22436523 60.11352539 C48.38269929 58.29689843 43.90013003 57.82744485 38.75952148 57.69946289 C38.08134872 57.68009674 37.40317596 57.66073059 36.70445251 57.64077759 C34.56537957 57.5816054 32.42625095 57.5348502 30.28686523 57.48852539 C28.82525488 57.45028794 27.36366566 57.41123297 25.90209961 57.37133789 C22.3430498 57.2759572 18.78383937 57.19169972 15.22436523 57.11352539 C15.11842041 57.78182373 15.01247559 58.45012207 14.90332031 59.13867188 C13.56031309 67.4155705 11.98702754 75.64039699 10.36676025 83.86624146 C7.73025781 97.25339831 5.1611558 110.64963254 2.73486328 124.07666016 C2.54835205 125.10073975 2.36184082 126.12481934 2.16967773 127.17993164 C2.00999512 128.06624268 1.8503125 128.95255371 1.68579102 129.86572266 C1.22436523 132.11352539 1.22436523 132.11352539 0.22436523 135.11352539 C-9.34563477 135.11352539 -18.91563477 135.11352539 -28.77563477 135.11352539 C-28.11162194 129.13740995 -27.35031379 123.39717158 -26.17407227 117.53149414 C-26.01701309 116.73239624 -25.85995392 115.93329834 -25.69813538 115.10998535 C-25.18566276 112.50632291 -24.66812442 109.90369485 -24.15063477 107.30102539 C-23.78833585 105.46427179 -23.42644416 103.62743781 -23.06494141 101.79052734 C-22.32655422 98.03983447 -21.58657583 94.28946105 -20.84545898 90.53930664 C-19.28396466 82.62992622 -17.74851421 74.71550804 -16.21313477 66.80102539 C-15.64565223 63.87780443 -15.07789772 60.95463637 -14.51000977 58.03149414 C-14.36976883 57.30947311 -14.22952789 56.58745209 -14.08503723 55.84355164 C-13.1733315 51.15225185 -12.25763903 46.46174407 -11.33958435 41.77168274 C-10.70026034 38.50498384 -10.06214431 35.23804945 -9.42410278 31.97109985 C-9.12235299 30.42783095 -8.82002758 28.88467445 -8.51705933 27.34164429 C-8.09522184 25.19298114 -7.67501395 23.04401104 -7.25610352 20.89477539 C-7.12554062 20.22529373 -6.99497772 19.55581207 -6.86045837 18.86604309 C-5.86002963 13.67946303 -4.99441388 8.47769316 -4.19873047 3.25610352 C-3.5642466 0.04304497 -3.36271006 0.13753718 0 0 Z " fill="#030303" transform="translate(234.775634765625,160.886474609375)"/>
<path d="M0 0 C4.08926849 -0.0750148 8.17826207 -0.12900317 12.26806641 -0.16479492 C13.65485627 -0.17973947 15.04160007 -0.20010278 16.42822266 -0.22631836 C35.59482431 -0.57920525 35.59482431 -0.57920525 43 5.4375 C47.67453937 11.42675357 47.68652923 16.55836218 47 24 C44.68584671 35.5832754 40.95073431 45.16687773 31 52 C21.97750479 56.67236359 12.98912206 56.13016968 3.0625 56.0625 C1.80630859 56.05798828 0.55011719 56.05347656 -0.74414062 56.04882812 C-3.82947663 56.03709681 -6.91471316 56.020681 -10 56 C-9.40630434 50.13505019 -8.60004332 44.41039122 -7.44140625 38.6328125 C-7.29219223 37.87257782 -7.14297821 37.11234314 -6.98924255 36.32907104 C-6.51712056 33.92701661 -6.04003177 31.5259842 -5.5625 29.125 C-4.93749917 25.96119384 -4.31442572 22.79700934 -3.69140625 19.6328125 C-3.54273102 18.87969788 -3.39405579 18.12658325 -3.24087524 17.35064697 C-2.10414292 11.57709455 -1.02286548 5.79490483 0 0 Z " fill="#797DB4" transform="translate(361,218)"/>
<path d="M0 0 C4.08926849 -0.0750148 8.17826207 -0.12900317 12.26806641 -0.16479492 C13.65485627 -0.17973947 15.04160007 -0.20010278 16.42822266 -0.22631836 C35.87054603 -0.58428171 35.87054603 -0.58428171 41.67358398 4.45263672 C46.85949084 10.46351206 46.53606653 16.41510396 46.17919922 23.98388672 C45.3404462 33.42042955 41.40316124 43.1783449 34.2578125 49.5546875 C24.87919864 56.13139183 13.27929977 56.43079338 2.25 56.1875 C0.47109375 56.16719727 0.47109375 56.16719727 -1.34375 56.14648438 C-4.22966693 56.11157409 -7.11457264 56.06254539 -10 56 C-9.53335297 46.57728159 -8.09004531 37.64168051 -6.0625 28.4375 C-5.53026857 25.97835769 -5.00029495 23.51872557 -4.47265625 21.05859375 C-4.09391357 19.29298096 -4.09391357 19.29298096 -3.70751953 17.49169922 C-2.82098695 13.11654774 -2.10016711 8.72531195 -1.42749023 4.31274414 C-1 2 -1 2 0 0 Z " fill="#797DB4" transform="translate(132,218)"/>
<path d="M0 0 C4.08926849 -0.0750148 8.17826207 -0.12900317 12.26806641 -0.16479492 C13.65485627 -0.17973947 15.04160007 -0.20010278 16.42822266 -0.22631836 C35.59482431 -0.57920525 35.59482431 -0.57920525 43 5.4375 C47.67453937 11.42675357 47.68652923 16.55836218 47 24 C44.68584671 35.5832754 40.95073431 45.16687773 31 52 C21.97750479 56.67236359 12.98912206 56.13016968 3.0625 56.0625 C1.80630859 56.05798828 0.55011719 56.05347656 -0.74414062 56.04882812 C-3.82947663 56.03709681 -6.91471316 56.020681 -10 56 C-9.40630434 50.13505019 -8.60004332 44.41039122 -7.44140625 38.6328125 C-7.29219223 37.87257782 -7.14297821 37.11234314 -6.98924255 36.32907104 C-6.51712056 33.92701661 -6.04003177 31.5259842 -5.5625 29.125 C-4.93749917 25.96119384 -4.31442572 22.79700934 -3.69140625 19.6328125 C-3.54273102 18.87969788 -3.39405579 18.12658325 -3.24087524 17.35064697 C-2.10414292 11.57709455 -1.02286548 5.79490483 0 0 Z M5 5 C1.91179166 20.31713209 -1.10969571 35.64424926 -4 51 C-0.99975053 51.05444001 1.99949039 51.0938836 5 51.125 C5.83917969 51.14175781 6.67835938 51.15851563 7.54296875 51.17578125 C15.99212391 51.24127858 25.10255764 50.00887686 31.8515625 44.484375 C38.98414177 37.26074153 41.13585775 27.91381854 41.5625 18 C41.40415368 14.02214859 41.17204186 12.29247116 39.125 8.8125 C31.76600958 4.54428556 23.17062991 4.72353485 14.875 4.875 C13.91851562 4.88402344 12.96203125 4.89304688 11.9765625 4.90234375 C9.65076475 4.92560173 7.32552706 4.95827787 5 5 Z " fill="#F6F6F7" transform="translate(361,218)"/>
<path d="M0 0 C4.08926849 -0.0750148 8.17826207 -0.12900317 12.26806641 -0.16479492 C13.65485627 -0.17973947 15.04160007 -0.20010278 16.42822266 -0.22631836 C35.87054603 -0.58428171 35.87054603 -0.58428171 41.67358398 4.45263672 C46.85949084 10.46351206 46.53606653 16.41510396 46.17919922 23.98388672 C45.3404462 33.42042955 41.40316124 43.1783449 34.2578125 49.5546875 C24.87919864 56.13139183 13.27929977 56.43079338 2.25 56.1875 C0.47109375 56.16719727 0.47109375 56.16719727 -1.34375 56.14648438 C-4.22966693 56.11157409 -7.11457264 56.06254539 -10 56 C-9.53335297 46.57728159 -8.09004531 37.64168051 -6.0625 28.4375 C-5.53026857 25.97835769 -5.00029495 23.51872557 -4.47265625 21.05859375 C-4.09391357 19.29298096 -4.09391357 19.29298096 -3.70751953 17.49169922 C-2.82098695 13.11654774 -2.10016711 8.72531195 -1.42749023 4.31274414 C-1 2 -1 2 0 0 Z M5 5 C3.46473841 10.11417734 2.28224878 15.21163217 1.2734375 20.453125 C1.12089508 21.23516296 0.96835266 22.01720093 0.81118774 22.82293701 C0.49208749 24.46304635 0.17451201 26.10345302 -0.14160156 27.74414062 C-0.62642625 30.25739347 -1.11757625 32.76935361 -1.609375 35.28125 C-1.91964797 36.88013519 -2.22955672 38.47909112 -2.5390625 40.078125 C-2.68590485 40.82813782 -2.83274719 41.57815063 -2.98403931 42.35089111 C-3.5460627 45.28492842 -4 48.00473837 -4 51 C14.66948274 51.91062967 14.66948274 51.91062967 31.5625 44.75 C38.56696704 36.84752437 41.70436947 25.6310842 41.35546875 15.1640625 C40.81418068 11.86874833 39.4613723 10.18788649 37 8 C30.85632658 3.90421772 22.68260786 4.87830716 15.625 4.9375 C14.09166016 4.94426758 14.09166016 4.94426758 12.52734375 4.95117188 C10.01816806 4.962897 7.5091151 4.97930824 5 5 Z " fill="#F8F8F9" transform="translate(132,218)"/>
<path d="M0 0 C0.33 0 0.66 0 1 0 C0.67 2.97 0.34 5.94 0 9 C-0.66 8.34 -1.32 7.68 -2 7 C-2.99 7.66 -3.98 8.32 -5 9 C-3.50164236 5.88802644 -1.86022073 2.91164984 0 0 Z " fill="#9497C3" transform="translate(204,270)"/>
</svg>
