<svg xmlns="http://www.w3.org/2000/svg" width="2500" height="2490" preserveAspectRatio="xMinYMin meet" viewBox="0 0 256 255" id="ruby">
  <defs>
    <linearGradient id="a" x1="84.75%" x2="58.254%" y1="111.399%" y2="64.584%">
      <stop offset="0%" stop-color="#FB7655"></stop>
      <stop offset="0%" stop-color="#FB7655"></stop>
      <stop offset="41%" stop-color="#E42B1E"></stop>
      <stop offset="99%" stop-color="#900"></stop>
      <stop offset="100%" stop-color="#900"></stop>
    </linearGradient>
    <linearGradient id="b" x1="116.651%" x2="1.746%" y1="60.89%" y2="19.288%">
      <stop offset="0%" stop-color="#871101"></stop>
      <stop offset="0%" stop-color="#871101"></stop>
      <stop offset="99%" stop-color="#911209"></stop>
      <stop offset="100%" stop-color="#911209"></stop>
    </linearGradient>
    <linearGradient id="c" x1="75.774%" x2="38.978%" y1="219.327%" y2="7.829%">
      <stop offset="0%" stop-color="#871101"></stop>
      <stop offset="0%" stop-color="#871101"></stop>
      <stop offset="99%" stop-color="#911209"></stop>
      <stop offset="100%" stop-color="#911209"></stop>
    </linearGradient>
    <linearGradient id="d" x1="50.012%" x2="66.483%" y1="7.234%" y2="79.135%">
      <stop offset="0%" stop-color="#FFF"></stop>
      <stop offset="0%" stop-color="#FFF"></stop>
      <stop offset="23%" stop-color="#E57252"></stop>
      <stop offset="46%" stop-color="#DE3B20"></stop>
      <stop offset="99%" stop-color="#A60003"></stop>
      <stop offset="100%" stop-color="#A60003"></stop>
    </linearGradient>
    <linearGradient id="e" x1="46.174%" x2="49.932%" y1="16.348%" y2="83.047%">
      <stop offset="0%" stop-color="#FFF"></stop>
      <stop offset="0%" stop-color="#FFF"></stop>
      <stop offset="23%" stop-color="#E4714E"></stop>
      <stop offset="56%" stop-color="#BE1A0D"></stop>
      <stop offset="99%" stop-color="#A80D00"></stop>
      <stop offset="100%" stop-color="#A80D00"></stop>
    </linearGradient>
    <linearGradient id="f" x1="36.965%" x2="49.528%" y1="15.594%" y2="92.478%">
      <stop offset="0%" stop-color="#FFF"></stop>
      <stop offset="0%" stop-color="#FFF"></stop>
      <stop offset="18%" stop-color="#E46342"></stop>
      <stop offset="40%" stop-color="#C82410"></stop>
      <stop offset="99%" stop-color="#A80D00"></stop>
      <stop offset="100%" stop-color="#A80D00"></stop>
    </linearGradient>
    <linearGradient id="g" x1="13.609%" x2="85.764%" y1="58.346%" y2="-46.717%">
      <stop offset="0%" stop-color="#FFF"></stop>
      <stop offset="0%" stop-color="#FFF"></stop>
      <stop offset="54%" stop-color="#C81F11"></stop>
      <stop offset="99%" stop-color="#BF0905"></stop>
      <stop offset="100%" stop-color="#BF0905"></stop>
    </linearGradient>
    <linearGradient id="h" x1="27.624%" x2="50.745%" y1="21.135%" y2="79.056%">
      <stop offset="0%" stop-color="#FFF"></stop>
      <stop offset="0%" stop-color="#FFF"></stop>
      <stop offset="31%" stop-color="#DE4024"></stop>
      <stop offset="99%" stop-color="#BF190B"></stop>
      <stop offset="100%" stop-color="#BF190B"></stop>
    </linearGradient>
    <linearGradient id="i" x1="-20.667%" x2="104.242%" y1="122.282%" y2="-6.342%">
      <stop offset="0%" stop-color="#BD0012"></stop>
      <stop offset="0%" stop-color="#BD0012"></stop>
      <stop offset="7%" stop-color="#FFF"></stop>
      <stop offset="17%" stop-color="#FFF"></stop>
      <stop offset="27%" stop-color="#C82F1C"></stop>
      <stop offset="33%" stop-color="#820C01"></stop>
      <stop offset="46%" stop-color="#A31601"></stop>
      <stop offset="72%" stop-color="#B31301"></stop>
      <stop offset="99%" stop-color="#E82609"></stop>
      <stop offset="100%" stop-color="#E82609"></stop>
    </linearGradient>
    <linearGradient id="j" x1="58.792%" x2="11.964%" y1="65.205%" y2="50.128%">
      <stop offset="0%" stop-color="#8C0C01"></stop>
      <stop offset="0%" stop-color="#8C0C01"></stop>
      <stop offset="54%" stop-color="#990C00"></stop>
      <stop offset="99%" stop-color="#A80D0E"></stop>
      <stop offset="100%" stop-color="#A80D0E"></stop>
    </linearGradient>
    <linearGradient id="k" x1="79.319%" x2="23.088%" y1="62.754%" y2="17.888%">
      <stop offset="0%" stop-color="#7E110B"></stop>
      <stop offset="0%" stop-color="#7E110B"></stop>
      <stop offset="99%" stop-color="#9E0C00"></stop>
      <stop offset="100%" stop-color="#9E0C00"></stop>
    </linearGradient>
    <linearGradient id="l" x1="92.88%" x2="59.841%" y1="74.122%" y2="39.704%">
      <stop offset="0%" stop-color="#79130D"></stop>
      <stop offset="0%" stop-color="#79130D"></stop>
      <stop offset="99%" stop-color="#9E120B"></stop>
      <stop offset="100%" stop-color="#9E120B"></stop>
    </linearGradient>
    <linearGradient id="o" x1="56.57%" x2="3.105%" y1="101.717%" y2="11.993%">
      <stop offset="0%" stop-color="#8B2114"></stop>
      <stop offset="0%" stop-color="#8B2114"></stop>
      <stop offset="43%" stop-color="#9E100A"></stop>
      <stop offset="99%" stop-color="#B3100C"></stop>
      <stop offset="100%" stop-color="#B3100C"></stop>
    </linearGradient>
    <linearGradient id="p" x1="30.87%" x2="92.471%" y1="35.599%" y2="100.694%">
      <stop offset="0%" stop-color="#B31000"></stop>
      <stop offset="0%" stop-color="#B31000"></stop>
      <stop offset="44%" stop-color="#910F08"></stop>
      <stop offset="99%" stop-color="#791C12"></stop>
      <stop offset="100%" stop-color="#791C12"></stop>
    </linearGradient>
    <radialGradient id="m" cx="32.001%" cy="40.21%" r="69.573%" fx="32.001%" fy="40.21%">
      <stop offset="0%" stop-color="#A80D00"></stop>
      <stop offset="0%" stop-color="#A80D00"></stop>
      <stop offset="99%" stop-color="#7E0E08"></stop>
      <stop offset="100%" stop-color="#7E0E08"></stop>
    </radialGradient>
    <radialGradient id="n" cx="13.549%" cy="40.86%" r="88.386%" fx="13.549%" fy="40.86%">
      <stop offset="0%" stop-color="#A30C00"></stop>
      <stop offset="0%" stop-color="#A30C00"></stop>
      <stop offset="99%" stop-color="#800E08"></stop>
      <stop offset="100%" stop-color="#800E08"></stop>
    </radialGradient>
  </defs>
  <path fill="url(#a)" d="M197.467 167.764l-145.52 86.41 188.422-12.787L254.88 51.393l-57.414 116.37z"></path>
  <path fill="url(#b)" d="M240.677 241.257L224.482 129.48l-44.113 58.25 60.308 53.528z"></path>
  <path fill="url(#c)" d="M240.896 241.257l-118.646-9.313-69.674 21.986 188.32-12.673z"></path>
  <path fill="url(#d)" d="M52.744 253.955l29.64-97.1L17.16 170.8l35.583 83.154z"></path>
  <path fill="url(#e)" d="M180.358 188.05L153.085 81.226l-78.047 73.16 105.32 33.666z"></path>
  <path fill="url(#f)" d="M248.693 82.73l-73.777-60.256-20.544 66.418 94.321-6.162z"></path>
  <path fill="url(#g)" d="M214.191.99L170.8 24.97 143.424.669l70.767.322z"></path>
  <path fill="url(#h)" d="M0 203.372l18.177-33.151-14.704-39.494L0 203.372z"></path>
  <path fill="#FFF" d="M2.496 129.48l14.794 41.963 64.283-14.422 73.39-68.207 20.712-65.787L143.063 0 87.618 20.75c-17.469 16.248-51.366 48.396-52.588 49-1.21.618-22.384 40.639-32.534 59.73z"></path>
  <path fill="url(#i)" d="M54.442 54.094c37.86-37.538 86.667-59.716 105.397-40.818 18.72 18.898-1.132 64.823-38.992 102.349-37.86 37.525-86.062 60.925-104.78 42.027-18.73-18.885.515-66.032 38.375-103.558z"></path>
  <path fill="url(#j)" d="M52.744 253.916l29.408-97.409 97.665 31.376c-35.312 33.113-74.587 61.106-127.073 66.033z"></path>
  <path fill="url(#k)" d="M155.092 88.622l25.073 99.313c29.498-31.016 55.972-64.36 68.938-105.603l-94.01 6.29z"></path>
  <path fill="url(#l)" d="M248.847 82.833c10.035-30.282 12.35-73.725-34.966-81.791l-38.825 21.445 73.791 60.346z"></path>
  <path fill="#9E1209" d="M0 202.935c1.39 49.979 37.448 50.724 52.808 51.162l-35.48-82.86L0 202.935z"></path>
  <path fill="url(#m)" d="M155.232 88.777c22.667 13.932 68.35 41.912 69.276 42.426 1.44.81 19.695-30.784 23.838-48.64l-93.114 6.214z"></path>
  <path fill="url(#n)" d="M82.113 156.507l39.313 75.848c23.246-12.607 41.45-27.967 58.121-44.42l-97.434-31.428z"></path>
  <path fill="url(#o)" d="M17.174 171.34l-5.57 66.328c10.51 14.357 24.97 15.605 40.136 14.486-10.973-27.311-32.894-81.92-34.566-80.814z"></path>
  <path fill="url(#p)" d="M174.826 22.654l78.1 10.96c-4.169-17.662-16.969-29.06-38.787-32.623l-39.313 21.663z"></path>
</svg>
