<?xml version="1.0" encoding="utf-8"?>
<svg xmlns="http://www.w3.org/2000/svg" xml:space="preserve" viewBox="0 0 240 234">
  <path fill="#370000" d="M42.5 0h155C221 0 240 19 240 42.5v149c0 23.5-19 42.5-42.5 42.5h-155C19 234 0 215 0 191.5v-149C0 19 19 0 42.5 0z"/>
  <path fill="#fa0f00" d="M76.5 167c-5.5.1-11-.5-16.3-1.5-4.3-.8-8.4-2.1-12.3-3.9-.9-.4-1.3-1.3-1.3-2.7v-19.2c0-.3.1-.7.4-.9.3-.2.7-.1 1 .1 8.8 5.4 18.8 8.3 29.1 8.4 6.1 0 10.5-.9 13.1-2.8 2.4-1.5 4-4.1 4-7 0-1.7-.4-3.4-1.3-4.9-1.2-1.7-2.7-3.2-4.5-4.3-2.8-1.7-5.8-3.2-8.8-4.3l-8-3.4c-6.5-2.8-11.7-5.8-15.4-8.9-3.4-2.7-6-6.2-7.7-10.2-1.4-3.8-2.1-7.7-2.1-11.8-.2-11.6 6.6-22.3 17.2-27 5.7-2.7 12.8-4.1 21.2-4.1 4.8 0 9.6.3 14.4 1 3.7.4 7.3 1.4 10.7 3 .7.4 1.2 1.2 1.1 2.1v18.2c0 .3-.2.5-.4.7-.3.3-.6.2-1-.1-3.6-1.8-7.4-3.2-11.3-4-4.4-1-9-1.5-13.5-1.4-2.7 0-5.3.2-7.9.8-1.8.4-3.6 1.1-5.2 2-1.3.7-2.3 1.8-3 3.1-.6 1.2-1 2.5-1 3.8 0 1.6.5 3.3 1.4 4.6 1.3 1.6 3 3 4.8 4 3 1.7 6.2 3.3 9.4 4.8l6 2.3c7.1 2.9 12.6 6 16.6 9.2 3.6 2.8 6.5 6.5 8.4 10.6 1.6 3.9 2.5 8.1 2.4 12.3.1 6-1.7 11.8-5.1 16.7-3.6 4.9-8.5 8.7-14.1 11-5.8 2.4-12.9 3.7-21 3.7zM161 83.8c7.1 0 13.1 1.1 18.2 3.2 4.8 2 9.1 5 12.6 8.8 3.3 3.6 5.8 7.9 7.5 12.5 1.7 4.7 2.5 9.7 2.5 14.7.2 6.7-1.2 13.3-4.1 19.3-2.6 5.4-6.4 10.1-11.2 13.8-4.7 3.7-10.1 6.5-15.9 8.3-5.9 1.8-12 2.7-18.1 2.7-.4 0-.9 0-1.3-.1-.5 0-1.6-.1-2.3-.1v27.4c.1.7-.4 1.4-1.2 1.4h-.1c-1.6.1-3 .3-5.2.5s-4.3.4-6.4.6-3.8.4-5.3.5c-.9 0-1.8.1-2.7.3-.6 0-1-.4-1-1.3v-94.5c0-.8 0-1.8-.1-3.2s-.1-2.8-.2-4.1c0-1.1-.1-2.1-.2-3.1-.1-.5.2-.9.7-1 2.7-1 5.8-1.9 9.2-2.9 3.5-1 7.3-1.8 11.4-2.6 4.4-.8 8.8-1.2 13.2-1.1zm-1.9 19c-1.7 0-3.3.1-5 .3-1.5.2-3.6 0-5.2.4v44c1 .3 2 .6 3 .8 1 0 1.9.1 2.5.1 3.9 0 7.8-.8 11.4-2.4 3.8-1.6 7-4.3 9.2-7.6 2.5-3.6 3.7-8.2 3.7-14 0-6.9-1.7-12.2-5.2-15.9-3.4-3.8-8.2-5.7-14.4-5.7z"/>
</svg>