<?xml version="1.0" standalone="no"?>
<!DOCTYPE svg PUBLIC "-//W3C//DTD SVG 20010904//EN"
 "http://www.w3.org/TR/2001/REC-SVG-20010904/DTD/svg10.dtd">
<svg version="1.0" xmlns="http://www.w3.org/2000/svg"
 width="810.000000pt" height="455.000000pt" viewBox="0 0 810.000000 455.000000"
 preserveAspectRatio="xMidYMid meet">

<g transform="translate(0.000000,455.000000) scale(0.100000,-0.100000)"
fill="#000000" stroke="none">
<path d="M4040 4440 c0 -5 -9 -10 -21 -10 -11 0 -17 -4 -14 -10 6 -9 -8 -14
-27 -11 -5 0 -8 -4 -8 -10 0 -5 -4 -8 -9 -5 -5 3 -12 -1 -15 -10 -3 -8 -10
-12 -16 -9 -5 3 -10 1 -10 -6 0 -7 -3 -10 -6 -6 -3 3 -15 -3 -27 -13 -11 -11
-24 -17 -29 -14 -4 3 -8 0 -8 -7 0 -7 -3 -10 -6 -6 -3 3 -14 -3 -25 -14 -11
-11 -24 -17 -29 -14 -6 4 -10 1 -10 -5 0 -6 -4 -9 -9 -6 -5 3 -11 -1 -15 -9
-3 -8 -15 -15 -26 -15 -11 0 -28 -9 -37 -19 -9 -11 -20 -18 -25 -15 -4 3 -8 0
-8 -6 0 -6 -4 -8 -10 -5 -5 3 -10 1 -10 -4 0 -6 -7 -11 -15 -11 -8 0 -15 -5
-15 -11 0 -5 -4 -7 -10 -4 -5 3 -10 1 -10 -5 0 -6 -4 -8 -10 -5 -5 3 -10 1
-10 -5 0 -6 -4 -9 -9 -6 -5 3 -12 -1 -15 -10 -3 -8 -10 -12 -16 -9 -5 3 -10 1
-10 -5 0 -6 -4 -9 -9 -6 -5 3 -12 -1 -15 -10 -3 -8 -10 -12 -16 -9 -5 3 -10 1
-10 -6 0 -7 -3 -9 -6 -6 -4 4 -20 -5 -36 -18 -16 -14 -34 -23 -39 -19 -5 3 -9
0 -9 -6 0 -6 -5 -8 -10 -5 -6 3 -13 -1 -16 -9 -3 -9 -10 -13 -15 -10 -5 3 -9
0 -9 -6 0 -6 -4 -9 -8 -6 -5 3 -16 -4 -25 -15 -10 -11 -22 -17 -27 -14 -6 3
-10 1 -10 -5 0 -6 -4 -8 -10 -5 -5 3 -10 2 -10 -4 0 -11 -99 -67 -112 -64 -4
2 -8 -2 -8 -8 0 -5 -4 -8 -9 -5 -5 3 -12 -1 -15 -10 -3 -8 -10 -12 -16 -9 -5
3 -10 1 -10 -5 0 -6 -4 -8 -10 -5 -5 3 -10 2 -10 -4 0 -11 -80 -57 -92 -53 -5
1 -8 -3 -8 -9 0 -5 -4 -7 -10 -4 -5 3 -10 1 -10 -5 0 -6 -4 -9 -9 -5 -6 3 -14
-2 -19 -10 -5 -9 -15 -17 -24 -19 -8 -1 -23 -10 -32 -19 -10 -9 -22 -15 -27
-12 -5 4 -9 1 -9 -5 0 -6 -4 -8 -10 -5 -5 3 -10 1 -10 -4 0 -6 -5 -11 -11 -11
-6 0 -17 -7 -26 -15 -8 -8 -19 -13 -24 -9 -5 3 -12 -2 -15 -10 -3 -9 -10 -13
-15 -10 -5 3 -9 0 -9 -6 0 -6 -4 -8 -10 -5 -5 3 -10 2 -10 -4 0 -6 -11 -13
-25 -17 -14 -3 -25 -10 -25 -16 0 -5 -4 -6 -10 -3 -5 3 -10 2 -10 -2 0 -5 -13
-17 -30 -26 -17 -10 -30 -15 -30 -11 0 4 -6 0 -12 -9 -7 -10 -24 -19 -38 -22
-14 -3 -30 -11 -36 -19 -6 -8 -17 -16 -24 -18 -8 -2 -23 -11 -34 -20 -10 -10
-23 -15 -28 -12 -4 3 -8 0 -8 -6 0 -6 -4 -8 -10 -5 -5 3 -10 1 -10 -4 0 -6 -7
-11 -15 -11 -8 0 -15 -5 -15 -11 0 -5 -4 -7 -10 -4 -5 3 -10 1 -10 -6 0 -7 -3
-9 -7 -6 -3 4 -11 0 -17 -8 -6 -7 -17 -15 -25 -17 -7 -2 -26 -14 -42 -28 l-29
-24 0 -1083 0 -1083 43 -26 c23 -13 87 -51 142 -82 55 -32 163 -95 240 -139
1071 -619 1446 -833 1461 -833 11 0 53 20 94 43 41 24 149 86 240 139 91 52
224 129 295 170 797 459 1233 713 1248 726 16 14 17 79 17 1092 0 846 -3 1080
-12 1092 -11 13 -829 489 -1643 956 -110 63 -204 118 -209 123 -13 12 -46 11
-46 -1z m-121 -654 c8 -9 11 -87 9 -261 l-3 -247 -140 -80 c-265 -152 -375
-219 -375 -227 0 -12 624 -371 645 -371 17 0 63 26 390 215 83 48 174 101 203
117 44 25 51 33 40 44 -7 7 -67 43 -133 81 -66 38 -177 102 -247 143 l-128 74
0 252 c0 208 3 254 15 264 15 13 -8 25 460 -245 121 -70 342 -197 490 -282
149 -86 278 -162 288 -171 16 -14 17 -59 15 -731 -3 -644 -5 -716 -19 -719 -9
-1 -111 52 -227 119 l-212 121 0 299 c0 244 -3 301 -14 305 -7 3 -58 -20 -112
-52 -55 -31 -189 -108 -299 -172 -110 -63 -210 -124 -222 -135 l-23 -20 0
-363 c0 -234 4 -365 10 -369 12 -7 41 8 317 168 111 64 208 117 214 117 13 0
391 -216 423 -241 33 -27 54 -12 -414 -282 -129 -74 -287 -165 -350 -202 -381
-222 -462 -266 -474 -262 -7 3 -101 56 -207 118 -259 150 -518 299 -779 449
-118 68 -224 132 -235 142 -20 20 -20 20 8 41 16 12 116 73 224 134 l195 113
250 -145 c138 -80 258 -146 267 -147 14 -3 16 34 19 363 l2 365 -22 21 c-13
11 -140 88 -283 170 -346 199 -344 198 -352 189 -5 -4 -10 -143 -13 -308 l-5
-301 -208 -119 c-115 -65 -216 -118 -225 -116 -16 3 -17 59 -20 719 -2 633 0
718 13 729 19 15 1217 709 1226 710 4 0 12 -6 18 -14z m48 -240 c1 -250 1
-255 -20 -272 -12 -10 -16 -12 -9 -4 9 10 12 80 12 272 0 142 3 258 8 258 4 0
8 -114 9 -254z m-502 -566 c3 -5 -1 -10 -10 -10 -9 0 -13 5 -10 10 3 6 8 10
10 10 2 0 7 -4 10 -10z"/>
</g>
</svg>
