<?xml version="1.0" encoding="UTF-8"?>
<svg version="1.1" xmlns="http://www.w3.org/2000/svg" width="100" height="100">
<path d="M0 0 C3.58548914 0.9229244 6.3978199 2.28670138 9.64404297 4.06567383 C10.53508224 4.54873238 10.53508224 4.54873238 11.44412231 5.04154968 C13.33041275 6.06624197 15.20997756 7.10258616 17.08935547 8.13989258 C18.96291806 9.16388393 20.8378053 10.18540512 22.71316528 11.20610046 C24.42134786 12.13740997 26.12630333 13.07463148 27.83105469 14.01220703 C31.58568612 16.02661637 35.40330814 17.92186891 39.21435547 19.82739258 C39.21435547 35.66739258 39.21435547 51.50739258 39.21435547 67.82739258 C23.02685547 76.13989258 23.02685547 76.13989258 17.9440918 78.74658203 C16.60312109 79.43614511 15.26221509 80.12583403 13.92138672 80.81567383 C12.89096252 81.3432428 12.89096252 81.3432428 11.83972168 81.88146973 C10.8356427 82.39864563 10.8356427 82.39864563 9.8112793 82.92626953 C9.18677887 83.24608795 8.56227844 83.56590637 7.91885376 83.89541626 C6.01580819 84.89639426 6.01580819 84.89639426 3.60766602 86.640625 C0.33404136 88.26391271 -1.30517705 87.82994544 -4.78564453 86.82739258 C-7.91015625 85.40039063 -7.91015625 85.40039063 -11.21533203 83.58911133 C-11.80935822 83.2670723 -12.4033844 82.94503326 -13.01541138 82.61323547 C-14.90170181 81.58854319 -16.78126663 80.552199 -18.66064453 79.51489258 C-20.53420713 78.49090123 -22.40909436 77.46938003 -24.28445435 76.44868469 C-25.99263692 75.51737518 -27.69759239 74.58015367 -29.40234375 73.64257812 C-33.15697518 71.62816878 -36.9745972 69.73291624 -40.78564453 67.82739258 C-40.78564453 51.98739258 -40.78564453 36.14739258 -40.78564453 19.82739258 C-23.47314453 10.95239258 -23.47314453 10.95239258 -18.01879883 8.15991211 C-16.59074637 7.42682045 -15.16276314 6.69359393 -13.73486328 5.96020508 C-12.99449829 5.58178467 -12.2541333 5.20336426 -11.49133301 4.81347656 C-10.78109985 4.44826904 -10.0708667 4.08306152 -9.33911133 3.70678711 C-8.41644722 3.23379684 -8.41644722 3.23379684 -7.47514343 2.75125122 C-2.19508053 -0.13601419 -2.19508053 -0.13601419 0 0 Z " fill="#252525" transform="translate(50.78564453125,6.172607421875)"/>
</svg>
