<?xml version="1.0" encoding="UTF-8"?>
<svg version="1.1" xmlns="http://www.w3.org/2000/svg" width="100" height="100">
<path d="M0 0 C34.32160531 -2.70624903 34.32160531 -2.70624903 41.82861328 1.63623047 C46.2098367 6.21762769 49 12.59391252 49 19 C49.66 19 50.32 19 51 19 C51.66 17.35 52.32 15.7 53 14 C55.64 9.38 58.28 4.76 61 0 C73.87 0 86.74 0 100 0 C99.14240421 4.28797894 98.50390596 6.24494957 96.3671875 9.82421875 C95.54057617 11.22317383 95.54057617 11.22317383 94.69726562 12.65039062 C93.79524414 14.15375977 93.79524414 14.15375977 92.875 15.6875 C91.59041478 17.85764035 90.30658605 20.02822863 89.0234375 22.19921875 C88.35795898 23.32118652 87.69248047 24.4431543 87.00683594 25.59912109 C83.79528228 31.04157151 80.64875866 36.5210608 77.5 42 C71.92231133 51.68810135 66.30740799 61.35374948 60.65429688 70.99804688 C57.36143456 76.62548941 54.13746772 82.28438292 51 88 C50.34 88 49.68 88 49 88 C48.44054688 86.9790625 47.88109375 85.958125 47.3046875 84.90625 C41.85611233 75.0086042 36.24602533 65.21531358 30.53564453 55.46655273 C25.43531905 46.75836169 20.38715426 38.02093786 15.35839844 29.27124023 C12.54903644 24.38976949 9.72668807 19.51897547 6.83203125 14.6875 C6.35926758 13.89657959 5.88650391 13.10565918 5.39941406 12.29077148 C4.53610586 10.85187193 3.66733989 9.41622642 2.79199219 7.98461914 C0 3.3298936 0 3.3298936 0 0 Z " fill="#39A072" transform="translate(0,6)"/>
<path d="M0 0 C2.2013255 0.25968221 4.37201655 0.57473746 6.55249023 0.97045898 C5.9718242 4.77606132 4.8882729 7.49703598 2.91967773 10.79467773 C2.36860352 11.72731445 1.8175293 12.65995117 1.24975586 13.62084961 C0.34773438 15.12421875 0.34773438 15.12421875 -0.57250977 16.65795898 C-1.85709498 18.82809933 -3.14092371 20.99868761 -4.42407227 23.16967773 C-5.08955078 24.29164551 -5.7550293 25.41361328 -6.44067383 26.56958008 C-9.65222748 32.01203049 -12.7987511 37.49151979 -15.94750977 42.97045898 C-21.52519844 52.65856034 -27.14010177 62.32420846 -32.79321289 71.96850586 C-36.0860752 77.5959484 -39.31004204 83.2548419 -42.44750977 88.97045898 C-43.10750977 88.64045898 -43.76750977 88.31045898 -44.44750977 87.97045898 C-44.45289412 83.32876118 -44.41860486 78.68953272 -44.34985352 74.04833984 C-44.3318506 72.47453177 -44.32409609 70.90056774 -44.32739258 69.32666016 C-44.3406446 58.90725861 -43.40868073 51.83037855 -37.44750977 42.97045898 C-36.41864346 41.16617482 -35.40444619 39.35345257 -34.40454102 37.53295898 C-32.79744602 34.67705798 -31.17849415 31.82998836 -29.53369141 28.99560547 C-26.73961784 24.16005369 -24.11679641 19.36763436 -21.86157227 14.25561523 C-16.62383169 2.90821164 -12.95907997 -1.01907316 0 0 Z " fill="#40B783" transform="translate(93.447509765625,5.029541015625)"/>
<path d="M0 0 C13.00268943 -2.04251692 13.00268943 -2.04251692 19 0 C23.92973819 4.28745203 26.89589637 10.89851613 29 17 C29 17.66 29 18.32 29 19 C29.66 19 30.32 19 31 19 C31.24492188 18.32582031 31.48984375 17.65164062 31.7421875 16.95703125 C33.27274465 13.35879596 35.1587271 10.06125627 37.125 6.6875 C38.40375 4.480625 39.6825 2.27375 41 0 C47.27 0 53.54 0 60 0 C58.76540872 3.0864782 57.68785459 5.73925482 56.109375 8.58203125 C55.73627197 9.25532471 55.36316895 9.92861816 54.97875977 10.62231445 C54.57326904 11.34507568 54.16777832 12.06783691 53.75 12.8125 C53.32323975 13.57715576 52.89647949 14.34181152 52.45678711 15.12963867 C46.44986733 25.83559688 40.24050123 36.4288464 34 47 C33.48429443 47.93030029 32.96858887 48.86060059 32.43725586 49.8190918 C31.96296143 50.5387915 31.48866699 51.25849121 31 52 C30.34 52 29.68 52 29 52 C27.72583008 50.20947266 27.72583008 50.20947266 26.26953125 47.6640625 C25.44606201 46.23827881 25.44606201 46.23827881 24.60595703 44.78369141 C24.01411621 43.74132324 23.42227539 42.69895508 22.8125 41.625 C22.2026123 40.5632959 21.59272461 39.5015918 20.96435547 38.40771484 C19.65763707 36.13266332 18.35361147 33.85622675 17.05224609 31.578125 C14.96800985 27.9359306 12.85481111 24.3109933 10.73828125 20.6875 C9.70335014 18.91129638 8.66896226 17.13477791 7.63485718 15.35809326 C6.63338218 13.63938531 5.62883729 11.92246736 4.62426758 10.20556641 C4.0186499 9.16062012 3.41303223 8.11567383 2.7890625 7.0390625 C2.24975098 6.11303223 1.71043945 5.18700195 1.15478516 4.23291016 C0 2 0 2 0 0 Z " fill="#2E4152" transform="translate(20,6)"/>
<path d="M0 0 C-1.6540988 4.5311749 -3.89675428 8.61882353 -6.25 12.8125 C-6.67748535 13.57715576 -7.1049707 14.34181152 -7.54541016 15.12963867 C-11.43553704 22.05433896 -15.39360285 28.93994947 -19.375 35.8125 C-20.26687012 37.35997925 -20.26687012 37.35997925 -21.17675781 38.9387207 C-21.74491211 39.91413818 -22.31306641 40.88955566 -22.8984375 41.89453125 C-23.40036621 42.75925049 -23.90229492 43.62396973 -24.41943359 44.51489258 C-26.10992506 47.17283398 -27.99211332 49.5754999 -30 52 C-32.32231227 15.71021674 -32.32231227 15.71021674 -22.7109375 3.0703125 C-16.60557691 -3.05570921 -7.79890551 -1.38198222 0 0 Z " fill="#35495E" transform="translate(80,6)"/>
</svg>
